<?xml version="1.0" encoding="UTF-8"?>
<svg id="Layer_2" data-name="Layer 2" xmlns="http://www.w3.org/2000/svg" viewBox="0 0 283.68 374.63">
  <defs>
    <style>
      .cls-1 {
        fill: #6d473e;
      }

      .cls-2 {
        fill: #fff;
      }

      .cls-3 {
        fill: #503a2c;
      }

      .cls-4 {
        fill: #291c56;
      }

      .cls-5 {
        fill: #371e17;
      }

      .cls-6 {
        fill: #eac79d;
      }

      .cls-7 {
        fill: #52357c;
      }

      .cls-8 {
        fill: #26170f;
      }

      .cls-9 {
        fill: #d39753;
      }

      .cls-10 {
        fill: #231f20;
      }
    </style>
  </defs>
  <g id="Layer_9" data-name="Layer 9">
    <path class="cls-6" d="m55.95,117.32l16.02-22.7,31.7-7.44,36.35-4.2,28.07,5.62,19.27,14.69,8.26,15.17,1.02,21.77,3.88-9.99,10.97-10.15h11.91s1.76,12.25,3.6,13.42-1.51,14.46-.18,16.55-5.29,4.74-4.65,6.77-18.25,6.66-18.25,6.66c0,0-17.71,19.45-17.44,20.37s-26.59,19.41-26.59,19.41l-17.27,7.09s-22.36,1.05-23.06.93-30.02-10.82-30.02-10.82l-15.47-16.62-5.4-16.09-2.27-10.93-8.15-12.7-2.3-26.81Z"/>
    <ellipse class="cls-2" cx="85.5" cy="146.96" rx="21.18" ry="19.61"/>
    <path class="cls-2" d="m178.29,137.89c1.4,10.74-4.75,20.79-19.54,22.18-11.65,1.1-24.13-3.99-25.6-15.95-1.33-10.75,8.93-21.43,20.53-22.95s23.21,5.97,24.61,16.71Z"/>
    <ellipse class="cls-5" cx="89.82" cy="145.72" rx="10.27" ry="12.96"/>
    <ellipse class="cls-5" cx="155.53" cy="140.23" rx="10.43" ry="14.24"/>
    <path class="cls-1" d="m144.88,145.54c.91,1.42,1.8,2.14,3.14,2.06.74-.03,2.87-.34,4.7-.76,1.79-.41,3.41-.78,3.41-.78,0,0,.4-.08,1.01-.2.63-.12,1.51-.28,2.47-.51.96-.23,2.02-.54,2.92-.94.9-.4,1.63-.88,1.97-1.15,1.28-.99,1.37-2.42.64-3.92-1.68.31-2.45.07-3.13.56-.19.13-.58.39-1.17.65-.59.26-1.38.51-2.2.7-.82.2-1.66.36-2.3.49-.65.14-1.07.22-1.07.22,0,0-1.63.36-3.43.75-1.76.4-3.59.66-4.19.71-1.11.12-1.62.86-2.76,2.11Z"/>
    <path class="cls-1" d="m164.78,142.62c-1.57.92-2.41,1.74-2.69,3.07-.08.35-.22,1.07-.48,1.76-.27.7-.63,1.33-1.16,1.76-.55.45-1.16.72-1.9.99-.65.24-1.02.33-1.02.33,0,0-.4.12-.92.16-.53.05-1.04-.02-1.44-.29-.6-.41-1.41-1.2-1.99-1.83-.6-.65-1.06-1.22-1.29-1.5-.84-1.07-1.8-1.19-3.53-1.71-.68,1.7-.71,2.98.21,4.26.26.35.79,1.03,1.5,1.81.74.79,1.56,1.64,2.76,2.48.7.47,1.52.77,2.25.89.73.13,1.38.12,1.89.07.51-.05.9-.13,1.17-.19.26-.06.41-.1.41-.1,0,0,.59-.14,1.4-.43.71-.25,2.08-.76,3.21-1.73,1.18-.96,1.98-2.4,2.38-3.51.41-1.13.55-1.99.64-2.42.26-1.56-.37-2.4-1.41-3.88Z"/>
    <path class="cls-1" d="m163.32,145.72c-.14-.51-.51-.97-.95-1.29-.44-.32-.94-.51-1.43-.62-.99-.2-1.98-.07-3.01.39-.24.1-.57.26-.96.47-.38.2-.82.44-1.38.81-.27.19-.57.39-.91.72l-.26.27c-.1.11-.2.25-.3.38-.19.29-.47.73-.52,1.49-.01.38.07.88.26,1.23.09.18.22.38.32.51l.19.2c.25.24.47.38.74.53.54.27,1.17.38,1.82.41,1.31.06,2.61-.32,3.56-.82.97-.51,1.56-1.17,1.92-1.8.73-1.28.46-2.47.4-2.87-.13-.3-.24-.56-.34-.8-.12-.22-.25-.4-.36-.57-.27-.27-.44-.49-.62-.58-.34-.2-.41-.25-.41-.25,0-.01-.22-.12-.67-.27-.21-.1-.52-.14-.88-.19-.18-.02-.36-.07-.58-.07-.22,0-.46.02-.7.03-.48-.02-1.05.13-1.63.22-.33.05-.41.1-.62.15-.18.05-.37.09-.55.16-.74.23-1.51.53-2.31.94-.41.21-.8.43-1.27.8-.23.16-.48.44-.73.73-.27.31-.36.51-.51.75-.26.49-.56,1.14-.56,2.06,0,.45.12.98.34,1.42.22.44.53.78.81,1.03,1.17.91,1.97.95,2.61,1.1.63.11,1.11.13,1.42.14,1.15.03,2-.22,2.75-.65.74-.44,1.43-1.05,2.04-1.94-.97-.4-1.65-.84-2.37-1.11-.7-.28-1.4-.43-2.22-.48-.22-.02-.55-.04-.89-.1-.17-.03-.34-.07-.47-.12-.06-.02-.12-.04-.14-.06-.02.02,0-.07-.05.05-.07.13-.19.27-.27.36-.35.42-.55.32-.15.3.09,0,.18.02.37.04.08.01.16.03.23.06.05.02.23.06.18.05,0,0,.03-.06.06-.12.04-.06.12-.2.1-.16,0,0-.02,0,.06-.05.11-.09.36-.25.61-.37.5-.26,1.07-.5,1.6-.66.13-.05.26-.08.39-.11.1-.03.19-.05.28-.08h0s0,0,0,0h0s-.02,0,0-.01h0s-.02-.02.02.02l.04.04h0s-1.23,1.01-1.23,1.01h0s0,0,0,0h-.01s-.03.03-.03.03c-.04.02-.04.01-.01,0,.02,0,0,0,.05,0,.17,0,.46.12.84.38.2.12.4.31.53.44l.03-.03c.06-.06.2-.17.35-.27.29-.2.68-.42,1-.59.31-.16.56-.29.74-.38.76-.37,1.25-.72,1.71-1.15.47-.38.85-1.02,1.93-1.13Z"/>
    <path class="cls-1" d="m99.62,147.18c-.62-.54-1.07-.96-1.48-1.23-.43-.3-.81-.41-1.28-.38-.51.04-2.06.13-3.55,0-1.48-.11-2.87-.35-2.87-.35,0,0-1.38-.24-2.94-.57-1.56-.33-3.32-.68-3.92-.77-1.1-.17-1.88.45-2.93,1.66.73,1.44,1.17,2.24,2.19,2.45.57.12,2.27.46,3.82.78,1.59.33,3.09.57,3.09.57,0,0,1.49.28,3.22.42,1.72.17,3.68.07,4.33-.03.6-.08,1.05-.36,1.42-.77.36-.44.65-1.04.91-1.79Z"/>
    <path class="cls-1" d="m81.01,146.27c.08.47-.06.84-.16,1.16-.11.32-.23.61-.31.89-.17.57-.23,1.14-.08,1.91.05.22.11.55.2.96.09.43.25,1.06.5,1.67.46,1.26,1.45,2.76,2.72,3.71,1.25.98,2.54,1.48,3.44,1.81.94.33,1.63.45,1.63.45,0,0,.17.03.48.09.31.04.77.1,1.35.1,1.15.03,2.89-.4,4.22-1.4,1.35-1.04,2.12-2.11,2.84-3.05.69-.94,1.19-1.77,1.42-2.19.43-.78.59-1.52.53-2.29-.07-.75-.33-1.57-.88-2.35-.77.55-1.42.82-1.95,1.17-.53.35-.93.75-1.31,1.37-.2.33-.62,1.02-1.2,1.8-.56.76-1.36,1.72-1.94,2.15-.63.46-1.23.6-1.78.6-.54.01-.96-.09-.96-.09,0,0-.39-.07-1.06-.3-.69-.25-1.58-.63-2.22-1.16-.66-.52-1.12-1.19-1.4-1.94-.15-.39-.24-.7-.32-1.07-.09-.39-.16-.7-.21-.91-.19-.82-.55-1.48-1.12-2.05-.29-.28-.62-.53-1.04-.74-.41-.2-.9-.36-1.38-.28Z"/>
    <path class="cls-1" d="m84.84,147.55c-.91,2.66.21,5.69,2.57,7.42,1.18.87,2.74,1.47,4.51,1.42.88-.05,1.8-.22,2.68-.6.87-.35,1.79-.91,2.57-1.77.26-.3.56-.66.85-1.18.26-.49.63-1.34.6-2.38-.01-1.02-.48-2.24-1.62-3.08-.28-.2-.62-.39-.93-.54-.27-.1-.58-.22-.86-.29-.27-.06-.6-.13-.85-.17-.24-.03-.48-.06-.73-.09-1.44-.15-3.06-.24-4.75-.19-.85.03-1.71.08-2.6.21-.45.07-.89.15-1.38.3-.23.06-.49.15-.76.27l-.19.08h-.01s0,0,0,0c.2-.64-1.74,5.56-.92,2.94h0s.02.04.02.04l.04.07.09.14c.13.18.26.36.4.49h0c.7.69,1.42.96,2.02,1.14.61.18,1.15.24,1.67.28,1.03.08,1.97.02,2.82-.02.16,0,.53-.03.8-.07.29-.04.58-.1.87-.17.59-.17,1.16-.34,1.9-.87.19-.14.4-.34.61-.58.12-.16.23-.32.32-.5.09-.16.19-.47.24-.72.24-1.12-.5-2.2-.83-2.44-.1-.09-.23-.21-.31-.27l-.25-.17c-.18-.12-.35-.22-.48-.27l-.43-.2-.39-.14c-1.09-.39-2.14-.49-3.11-.49-.49,0-.98.03-1.47.1-.25.03-.48.07-.75.13l-.41.1-.56.17c-1.46.5-2.64,1.43-3.16,2.5-.25.54-.36,1.17-.26,1.76.09.59.34,1.1.7,1.57.39.45.84.87,1.4,1.2.26.18.56.32.85.46.3.15.5.23.76.33.79.29,1.34.43,1.97.6,1.21.3,2.32.48,3.34.52,1.01.04,1.95-.07,2.69-.35.35-.1.68-.31.87-.42.19-.13.28-.21.28-.21,0,0,.03-.01.41-.35.08-.1.19-.22.32-.36.06-.07.12-.15.18-.23.07-.12.15-.25.23-.4.08-.16.16-.27.22-.52.07-.23.12-.5.15-.77,0-.3-.03-.65-.12-.97-.1-.28-.25-.65-.42-.88-.15-.26-.79-.97-1.59-1.37-.41-.22-.84-.4-1.34-.56-.25-.08-.51-.15-.78-.22-.14-.03-.28-.06-.43-.09-.22-.03-.45-.07-.69-.11-1.96-.18-4.47.2-5.41,1.79-.26.41-.39,1-.38,1.38.03.39.1.8.28,1.16.17.34.37.66.85,1.09.18.2.6.45.96.69.22.12.57.21.85.32l.45.16c.16.05.37.07.56.11l1.16.2,1.23-.02c.45.03.75-.08,1.07-.18.3-.11.72-.17.87-.33.19-.14.42-.28.59-.42l.38-.43.26-.45c.06-.16.12-.33.17-.5.09-.38.12-.72.04-1.21-.06-.27-.08-.48-.3-.85-.09-.16-.2-.32-.31-.47-.12-.15-.2-.21-.31-.31-.87-.72-1.52-.85-2.12-.98-.61-.12-1.18-.16-1.77-.13-.59.03-1.19.11-1.92.39-.35.14-.79.36-1.22.77-.12.12-.23.25-.33.38l-.15.2c-.05.07-.01.17-.02.25v.52c0,.08.01.19,0,.25l-.1.14c-.35.35-.3.8-.16,1.15.11.37.27.72.6,1.07.6.67,1.8,1.34,3.14,1.52,1.27.23,2.57.21,3.32-.08.79-.27,1.32-.61,1.52-1.06.25-.41.49-.81.73-1.21.13-.21.26-.41.38-.61l.11-.17.06-.09s-.11-.07-.16-.11c-.48-.29-.97-.57-1.44-.85l-.39-.23-.2-.11c-.05-.01-.03-.05-.14-.05l-.53.05c-1.42.12-2.83.24-4.24.37l-2.12.18-.26.02c-.12,0-.05.02-.08.03l-.05.06-.1.12-.42.48c-.29.41-.28.51-.35.67-.08.29-.09.46-.11.7,0,.25.01.57.23,1.07.21.48.49.72.51.77.73.7,1.75,1.12,2.82,1.2.54.05,1.08.02,1.61-.03.44-.05.74-.12,1.14-.23.39-.13.78-.26,1.26-.59.21-.13.5-.4.72-.67.24-.33.44-.69.53-1.13.03-.11.05-.21.06-.32v-.17c0-.11,0-.23,0-.34-.04-.21-.03-.43-.11-.61-.1-.39-.3-.72-.53-1.03-.47-.61-1.33-1.07-2.27-1.31-.95-.24-1.89-.26-2.69-.25-1.62.04-2.56.37-3.18.61-.33.13-.55.28-.76.43-.25.15-.35.3-.51.45-.24.3-.4.59-.5.95-.12.34-.14.99.01,1.37.13.41.35.75.66,1.08.62.64,1.61,1.15,2.68,1.49,1.02.34,2.32.56,2.94.53.35,0,.78-.02,1.14-.09.35-.06.7-.14,1.14-.31.21-.09.47-.19.8-.47.16-.14.38-.39.47-.74.1-.35.02-.73-.07-.93-.21-.43-.44-.58-.63-.71-.19-.13-.38-.21-.55-.28-.71-.26-1.38-.34-2.08-.33-.69.02-1.42.15-2,.55.69-.07,1.29.14,1.83.38.53.25,1.02.58,1.35.92.08.08.14.17.18.24.02.03.02.06,0,.07.09-.06.16-.13.24-.18.1-.05.16-.09.22-.11.28-.1.21.07-.02-.23-.02-.05-.12-.16-.16-.25l-.14-.3s-.02-.02-.06-.02c-.14-.02-.37-.04-.61-.08-.24-.04-.39-.09-.64-.17-.56-.17-.46-.25-.54-.34-.04-.08-.03-.15,0-.2.06-.11.28-.08.25-.07,0,0,0,0,0,0h0s0,0,0,0h0s0-.01,0-.01h0s0,0,0,0h0s0,0,0,0c.6.07-1.34-.15,1.34.15h0s.05,0-.01-.01c-.05-.02-.08-.05-.11-.08-.16-.11-.22-.22-.41-.46-.12-.17-.36-.64-.29-.5l-.1.03c-.09.02-.29.07-.37.07,0,0,0,0,0,0h.01s0,0,0,.01c-.03.02-.05-.01,0,0h0s-.09.27-.09.27l-.02.05v.02c.98.59-1.36-.79-1.12-.65h.01s.06.04.09.06c.06.04.1.08.14.13.07.09.29.31.35.48.03.09.09.19.17.32.03.05.02.01.02.02.14-.08.88-.15,1.26-.04.11.02.18.05.23.06.02,0,.02,0,.01,0,0,0,0,0,0,0l.1-.18c.18-.25.24-.41.38-.56.05-.07.18-.16.21-.19.03-.04.07-.07.12-.1.02-.01.05-.03.08-.03h.02c-.59.22,1.34-.52-1.32.51h0s0-.03,0-.03v-.09c-.03-.09-.02-.03-.02-.05h.01s0,.01,0,0c.02,0-.04,0,.04,0,.09.02.17.04.26.06.17.04.33.08.47.13.28.09.51.19.64.26.16.05.15.16.21.07.08-.09.16-.16.24-.23.04-.05.09-.1.13-.13.08-.07.15-.12.2-.15.12-.06.14-.09.18-.11.05-.03.1-.04.15-.06.02,0,0,0,.03-.01-.09,0-.17-.02-.23-.04,0-.01-.08-.03-.16-.06-.07-.02-.13-.05-.19-.08-.11-.06-.21-.13-.28-.2-.07-.05-.14-.09-.21-.13-.05-.03-.02,0-.03-.01-.01.01,0,0,.01,0,0-.01,0,0,0,0h0s.04,0-.05.02c-.09.04-.47.12-1.1.1-.63-.02-1.5-.15-2.48-.4-.47-.12-1.08-.29-1.47-.44-.14-.06-.12-.05-.12-.05h0s0,.01,0,.01h0s.16-.03.16-.03c.12-.02.27-.05.42-.07.29-.04.61-.06.92-.06.63,0,1.24.07,1.71.25l.2.07.13.06c.06.02.06.03.06.03l.51-.66c.09-.1.22-.2.32-.27.05-.06.11-.1.19-.14.11-.04.1-.04.12-.04.02,0,.06,0-.01,0-.08,0-.59-.31-.9-.8l-.14-.19-.07-.1s0,0,0,0c.01,0,0,0-.02,0-.03.01-.04.03-.09.04-.08.04-.19.07-.31.1-.12.03-.25.06-.38.07-.15.02-.2.02-.46.04-.85.05-1.6.08-2.27.03-.32-.03-.63-.07-.83-.13-.09-.03-.17-.06-.2-.08-.01,0-.02,0-.02,0h0s-.07.1-.07.1c-.14.16-.15.2-.24.29h0s-.12.1-.12.1l-.02.02h-.01s0,.01,0,.01h0c.27-2.31-.38,3.15-.31,2.59h0s0,0,0,0l.06-.02c.06-.03.15-.06.27-.09.22-.07.52-.13.83-.17.63-.1,1.35-.15,2.07-.17,1.45-.04,2.96.03,4.18.16.21.02.4.05.6.07.13.03.26.05.38.07.11.02.16.06.24.08.03,0,0,0,.01,0,0,0,0,0,0,0,.06-.11-.14.35-.34.54-.3.33-.69.62-1.15.84-.44.24-.88.36-1.32.47-.89.16-1.8.07-2.68-.23-.88-.3-1.74-.81-2.49-1.57-.73-.76-1.37-1.8-1.59-3.17Z"/>
    <path class="cls-6" d="m143.17,210.36l-.87,11.46-10.55-8.75-8.13,20.35v14.07s3.38,7.28,4.02,7.28h12.95l18.68-5.48,13.9-12.37,7.59-14.01-1.17-7.62-3.51-22.99-20.37,14.83-12.54,3.23Z"/>
    <path class="cls-6" d="m202.11,283.71l8.31,17.6,6.5,19.16,1.7,12.11-12.18,6.78-24.91.55-27.34-10.04s-16.87,4.06-18.24,4.04-14.68,6.62-14.68,6.62l-4.22,4.3-3,16.95,8.79,2.41-.98,4.4,1.5,5.06,12.03-8.12,4.57,1.09,6.44,1.31,8.33-.49,4.2-1.91,11.62-3.74,12.48-4.02h17s12.01,2.14,13.11,2.41,22.94,1.6,22.94,1.6l22.78-5.19,11.77-7.85-6.02-23.06-10.78-24.36-6.47-23.28-.25-7.64-17.82,9.72-23.45,2.84-3.73.77Z"/>
    <g>
      <path class="cls-3" d="m218.46,37.02S188.47-6.67,115.14,5.74C55.46,15.84,50.65,81.17,50.65,81.17c0,0-5.44,5.8-4.6,37.82l-22.41,16.63s2.81,2.49,16.31,0c0,0-13.37,28.49-13.34,48.24.03,19.74-24.13,34.04-24.13,34.04,0,0,39.79-7.02,54.63-51.55.73-2.19,12.41-64.24,17.52-66.07s28.27-19.52,39.14-1.91c0,0,12.02-17.68,29.86-15.14,17.83,2.54,21.63,11.58,21.63,11.58,0,0-.3,24.18,0,25.16s-12.39,34.33-9.71,45.1c2.68,10.77,10.34,47.33,10.34,47.33l-4.38,16.5s15.06-12.17,20.75-42.26c.29-1.55.5-5.49.61-7.15,2.34-34.08-1.25-37.24-1.25-37.24,0,0,6.19-34.01,6.12-34.12s6.98,9.34,8.8,25.39-.55,4.02-.55,4.02c0,0,13.03-22.45,21.85-18,8.82,4.45,6.43,8.79,6.43,8.79,0,0,8.96-22.81,8.76-48.92-.14-18.66-14.57-42.38-14.57-42.38Z"/>
      <path class="cls-3" d="m202.01,167.3c.82-.55,20.39,0,25.32,9.03s11.5,36.06,11.5,36.06c0,0,6.71,18.81,6.71,19.71s6.57,12.53,7.25,11.92,15.47,4.59,16.01,4.31,11.39-.63,11.39-.63l2.3,9.53-8.21,16.7-12.87,6.3-14.1.98-.41-9.33s.27-13.57-.27-13.84-11.63-32.02-11.63-32.02l-14.37-15.47-14.24-6.62-17.08,6.23,4.22-7.3s-1.3-11.47-.99-12.01-2.76-8.41-2.76-8.41l12.24-15.13Z"/>
    </g>
    <path class="cls-6" d="m92.69,190.43l9.18-11.36,9.99-4.8-14.96-3.29-9.76,9.72-5.26,9.72-9.64-13.59s-4.66-22.06-5.38-22.99-8.06-13.26-8.06-13.26l-9.36.7s3.31,8.89,3.71,8.89,6.33,17.29,6.33,17.29l3.74,14.36-6.71-.98-11.17-11.31-12.69-14.84-12.28-2.46s2.2,8.13,3.45,7.83,12.97,13.35,12.97,13.35l13.8,17.01-25.51-27.27s-3.56,2.88-3.56,3.99,6.57,11.92,6.57,11.92l11.25,14.22-2.55,1.72-24.3-4.85s-1.37,4.23,0,4.85,17.28,8.92,17.28,8.92l7.03.15,6.5,13.81-1.24,5.65-16.97,22.2-9.86,23.89.55,11.58,6.84,15.11,17.69-.48,24.11-12.71,16.41-9.47,6.48-1.77-13.23-8.36-2.22-16.04-17.49,7.28,8.85-22.66,3.47-9.18,16.9-6.85,7.25-18.44,1.86-7.2Z"/>
    <path class="cls-7" d="m179.41,215.29l18.21-10.06h14.24l15.33,10.25,13,22.31,8.35,27.92-1.62,4.66-15.08,9.72s-14.53,4.1-15.11,2.84-18.68-.3-18.68-.3l.67,6.89-3.86,18.89-5.54,31.48h-13.55l-20.25-6h-9.31s-14.2,3.2-15.11,2.72-11.18,4.79-11.18,4.79l-3.76,7.32-1.94,7.14-12.55-1.18-9.18-4.55-1.86-25.29-1.09-28.69-4.97-20.06,1.75-5.66-8.29-4.29-9.9-12.75,1.25-8.21,8.65-4.38,7.62-8.7,7.39-8.01,7.13-6.2,11.49-5.01h14.59l3.56,1.35-3.25,11.37-4.64,9.83-.25,12.06,4.9,6.14,3.89,3.13,13.16-2.93,11.92-3.49,12.93-9.38,9.58-13.34,3.21-7.5-1.83-4.82Z"/>
    <g>
      <ellipse class="cls-2" cx="91.11" cy="145.4" rx="5.61" ry="8.26"/>
      <path class="cls-5" d="m86.17,145.4c.03-2.55.84-5.72,3.21-7.1,2.22-1.29,4.42.27,5.51,2.25,1.41,2.57,1.52,5.9.5,8.63-.78,2.07-2.69,4.39-5.17,3.69-3-.85-4.02-4.76-4.05-7.46,0-.86-1.35-.86-1.34,0,.03,3.11,1.17,6.97,4.2,8.43,2.74,1.32,5.49-.28,6.91-2.71,1.79-3.05,1.91-7.14.54-10.36-1.1-2.58-3.6-4.97-6.61-4.12-3.62,1.02-5,5.42-5.04,8.76,0,.86,1.33.86,1.34,0Z"/>
    </g>
    <g>
      <ellipse class="cls-2" cx="155.53" cy="139.56" rx="5.61" ry="8.26"/>
      <path class="cls-5" d="m150.59,139.56c.03-2.55.84-5.72,3.21-7.1,2.22-1.29,4.42.27,5.51,2.25,1.41,2.57,1.52,5.9.5,8.63-.78,2.07-2.69,4.39-5.17,3.69-3-.85-4.02-4.76-4.05-7.46,0-.86-1.35-.86-1.34,0,.03,3.11,1.17,6.97,4.2,8.43,2.74,1.32,5.49-.28,6.91-2.71,1.79-3.05,1.91-7.14.54-10.36-1.1-2.58-3.6-4.97-6.61-4.12-3.62,1.02-5,5.42-5.04,8.76,0,.86,1.33.86,1.34,0Z"/>
    </g>
  </g>
  <g id="Layer_10" data-name="Layer 10">
    <path class="cls-8" d="m116.2,95.73l11.26-9.45,14.17-.77,14.45-2.06,7.7,6.14-11.58-12.27-15.34-5.48s-11.46,4.81-12.2,5.48-10.61,15.89-10.61,15.89l-4.72-6.62-10.85-2.81-12.97,1.53-10.2,6.53-4.89,9.62,16.59-8.26,9.77-2.3,12.89,3.89,6.54.92Z"/>
    <path class="cls-8" d="m151.39,54.72c3.07-1.32,48.46-14.31,41.32,53.86,0,0,9.14,13.42,6.36,24.18l-11.33-27.45,1.59-11.19-1.59-16.81-11.96-15.37-24.39-7.23Z"/>
    <path class="cls-8" d="m92.19,67.49s5.03-3.17,9.49-.56-12.28-17.18-33.54-11.45c-21.26,5.73-15.18,24.02-15.18,24.02l9.35-12.58,8.1-6.24,10.01,1.66,11.78,5.14Z"/>
    <path class="cls-8" d="m146.22,59.44s-15.2,6.77-13.19,3.98c9.28-12.83,13.33-17.89,32.21-12.78s23.55,20.69,23.55,20.69l-10.02-10.43-12.43-4.42-10.81-2.12-9.31,5.08Z"/>
    <path class="cls-4" d="m186.99,248.03c5.49,14.4,8.54,29.71,5.93,45.08-1.95,11.46-4.36,22.86-5.86,34.39-.31,2.39-.59,4.8-.66,7.22-.05,1.61-.11,3.49.5,5.01.53,1.34,1.79,2.29,3.3,1.87,1.28-.35,2.41-1.94,1.87-3.3-.09-.22-.14-.45-.21-.68-.24-.82-.03.39-.05-.33-.03-.79-.07-1.57-.05-2.35.05-2.07.27-4.13.51-6.18.64-5.32,1.66-11.05,2.64-16.51,1.03-5.74,2.12-11.47,3.1-17.22,1.29-7.52,1.62-15.07.73-22.66-1.04-8.86-3.4-17.44-6.58-25.76-.52-1.35-1.81-2.28-3.3-1.87-1.29.36-2.39,1.94-1.87,3.3h0Z"/>
    <path class="cls-4" d="m190.19,337.54c-8.99-1.78-17.97-3.56-26.96-5.35-1.42-.28-2.89.4-3.3,1.87-.36,1.32.45,3.01,1.87,3.3,8.99,1.78,17.97,3.56,26.96,5.35,1.42.28,2.89-.4,3.3-1.87.36-1.32-.45-3.01-1.87-3.3h0Z"/>
    <path class="cls-4" d="m92.11,232.37c-2.85,9.93-8.97,18.6-18.54,22.97-1.75.8-1.48,2.99-.54,4.21,3.99,5.16,8.67,9.65,13.9,13.56,1.46,1.09,3.46-.12,3.94-1.6,3.54-10.99,5.53-22.45,5.95-33.99.13-3.45-5.23-3.45-5.36,0-.41,11.08-2.36,22.01-5.76,32.56l3.94-1.6c-4.84-3.61-9.12-7.95-12.81-12.72l-.54,4.21c10.77-4.92,17.8-15.03,21-26.18.95-3.32-4.22-4.74-5.17-1.43h0Z"/>
    <path class="cls-4" d="m88.27,248.53c.01.16.01.32.02.48.02.5-.02.1.01-.02-.04.14-.1.3-.12.45.07-.39.09-.16,0,0-.08.14-.16.27-.24.41-.34.63.19-.19-.09.13-.25.28-.51.53-.79.78.33-.28.02-.01-.05.04-.14.09-.28.19-.42.27-.28.17-.57.33-.87.47-.44.21-.2.08-.1.04-.17.07-.35.13-.52.2-.44.16-.89.3-1.33.44-3.24,1.01-6.59,2.17-8.31,5.34-1.63,3-1.08,7.11,2.23,8.72,2.8,1.36,6.18.67,8.48-1.33,2.91-2.54,3.34-6.77,3.58-10.37.16-2.38-3.01-3.45-4.58-1.9-1.97,1.96-3.39,4.51-3.9,7.25-.25,1.33.26,2.62,1.55,3.16s2.53-.01,3.35-1.1c1.17-1.56,1.15-3.9.22-5.56-1.05-1.87-3.22-2.79-5.3-2.3s-3.63,2.2-3.79,4.33,1.52,4.2,3.56,4.76c2.23.61,4.57-.66,5.25-2.88.51-1.67.05-3.61-1.25-4.79-1.72-1.56-4.38-1.3-5.94.35-1.45,1.54-1.89,3.98-.81,5.84s3.23,2.9,5.36,2.88c2.34-.02,4.33-1.25,6.14-2.61,1.08-.81,1.66-2.02,1.1-3.35s-1.82-1.77-3.16-1.55c-3.83.64-6.43,5.22-5.08,8.84.95,2.55,4.21,2.52,5.17,0,.3-.8.61-1.59.91-2.39l-5.17-1.43c-.17.49-.35.97-.52,1.46-.47,1.32.53,2.99,1.87,3.3,1.5.34,2.79-.46,3.3-1.87.17-.49.35-.97.52-1.46.47-1.32-.53-2.99-1.87-3.3-1.53-.35-2.76.47-3.3,1.87-.3.8-.61,1.59-.91,2.39h5.17c-.07-.19-.18-.99-.15-.3-.01-.21,0-.41,0-.62,0,.69.06-.1.11-.3.13-.5-.2.39.12-.22.05-.09.11-.18.17-.27-.21.26-.23.27-.03.05.07-.07.64-.54.34-.35-.31.2.37-.19.43-.22-.61.28.19,0,.35-.02l-2.07-4.9c-.86.65-2.14,1.59-2.82,1.76-.16.04-.96.15-.28.11-.22.01-.45,0-.67,0,.54-.02.05-.01-.16-.06-.58-.13.33.24-.16-.07-.25-.17-.24-.15.03.04l-.15-.15c.19.27.21.28.04.03l.1.26c.01-.58.03.37-.05.45.02-.13.06-.26.1-.39-.13.3-.15.36-.06.19.1-.17.06-.12-.13.14.18-.17.18-.18.01-.05-.17.12-.16.13.04,0-.19.13-.41.19-.64.2-.35,0-.69-.15-.93-.4l-.2-.29c.14.25.13.19-.05-.18.18.56-.02-.62.01-.03.03.56.14-.56-.02-.03.11-.38.32-.59.63-.79-.38.24.25-.1.41-.11.21-.01.39.04.56.16-.22-.13-.24-.14-.08-.02.15.13.14.11-.05-.06.17.24.21.28.11.12-.1-.17-.07-.12.08.16.05.15.06.3.02.45,0,.15-.06.3-.15.42.15-.25.13-.23-.08.06.41-.29-.24.36.1-.05l-.27.12c.3-.07.26-.08-.12-.02.63.19-.54-.29.08,0-.1-.05-.7-.48-.35-.16-.21-.29-.23-.31-.07-.06l-.11-.27c.04.13.08.26.11.39l-.05-.31c-.13.53.26-.47-.02.19-.06.19-.03.13.08-.18-.07.12-.14.23-.23.33,1.63.69,3.27,1.38,4.9,2.07.1-.53.22-1.05.39-1.56,0,0,.29-.79.11-.36.1-.25.23-.49.35-.72.25-.47.53-.93.85-1.36-.21.29.08-.09.17-.19.21-.24.42-.46.64-.68l-4.58-1.9c-.04.62-.09,1.25-.15,1.87-.02.18-.04.36-.06.54,0-.06.05-.36,0-.05-.06.35-.12.7-.2,1.05-.07.3-.14.6-.23.89-.05.17-.11.33-.16.5,0,.01-.16.41-.06.16.05-.13-.24.47-.32.61-.09.15-.18.29-.28.44-.09.13-.24.28-.06.08-.18.2-.37.37-.57.55.34-.3.11-.1-.11.03-.12.07-.24.12-.35.19.08-.04.54-.18.08-.04-.26.08-.51.15-.77.22-.45.12.49.01-.17.01-.12,0-.59.06-.68-.02-.03-.03.55.15.24.02-.1-.04-.26-.09-.36-.09-.25-.01.15.08.21.11-.13-.07-.27-.17-.4-.22-.23-.08.13.1.18.15-.05-.06-.19-.2-.26-.26,0,0,.3.42.13.17-.04-.06-.26-.42-.11-.14.14.26-.01-.05-.03-.1-.16-.44-.03-.08-.02.06,0-.02-.02-.33,0-.33,0-.2,0-.15-.05.16l.04-.22c.04-.15.08-.29.12-.44.01-.04.16-.38.04-.11-.11.23.24-.4.31-.51.05-.08.3-.39,0-.04.08-.09.16-.18.24-.27.11-.12.22-.23.34-.34.04-.03.41-.35.19-.18-.25.19.15-.09.21-.13.11-.07.23-.14.34-.2.16-.09.33-.17.49-.26,0,0,.4-.19.19-.09-.25.11.28-.11.32-.13.13-.05.26-.1.39-.14.35-.12.71-.24,1.06-.35,1.46-.46,2.92-.89,4.31-1.55,2.87-1.35,5.44-4.29,5.2-7.63-.1-1.4-1.16-2.75-2.68-2.68-1.37.06-2.79,1.18-2.68,2.68h0Z"/>
    <path class="cls-4" d="m113.07,352.18c-.55.31.48-.04.08-.02-.12,0-.28.07-.39.11-.57.17.08.06.13,0-.06.07-.54.03-.64.03-.39,0-.77-.03-1.15-.05-.71-.05.42.09-.15-.01-.2-.04-.4-.07-.6-.1-2.05-.38-4.05-1.02-6-1.75-.53-.2-1.06-.41-1.59-.62-.11-.04-.76-.32-.25-.1-.22-.09-.44-.19-.65-.28-.95-.42-1.9-.86-2.82-1.33-.72-.37-1.44-.75-2.13-1.16-.3-.18-.59-.36-.88-.55-.1-.07-.2-.15-.31-.21-.4-.23.58.47.12.1-1.11-.93-2.7-1.09-3.79,0-.95.95-1.12,2.86,0,3.79,3.14,2.62,7.32,4.23,11.11,5.63,2.07.76,4.19,1.43,6.37,1.77s4.34.49,6.26-.59c3.01-1.69.31-6.32-2.71-4.63h0Z"/>
    <path class="cls-9" d="m202.11,283.71c-.35.84-.13,1.82.17,2.6.32.81.74,1.45,1.22,2.01.96,1.1,2.15,1.77,3.65,2.06.81.15,2.41.4,4.31.54,1.9.15,4.1.22,6.19.22,2.1,0,4.09-.09,5.59-.19,1.49-.1,2.52-.23,2.52-.23,0,0,.27-.03.74-.09.23-.03.55-.08.95-.15.29-.06.62-.12.98-.2,1.44-.3,3.42-.73,5.52-1.35,2.1-.62,4.33-1.47,6.18-2.43,1.85-.96,3.3-1.98,3.98-2.56,2.53-2.1,2.79-4.79,1.7-8.09-3.49.49-5.2.22-6.85,1.49-.44.35-1.39.99-2.69,1.67-1.3.68-3,1.34-4.74,1.86-1.73.53-3.49.92-4.82,1.21-.33.07-.63.13-.9.19-.16.03-.33.06-.49.08-.33.04-.52.07-.52.07,0,0-.78.09-2.11.17-1.32.08-3.15.14-5.06.14-1.91,0-3.9-.07-5.54-.2-1.65-.12-2.93-.3-3.56-.39-1.15-.17-2.02,0-2.93.42-.45.2-.94.48-1.46.75-.53.24-1.19.59-2.04.41Z"/>
    <path class="cls-9" d="m203.65,287.71c.1,1.81.05,3.16.25,4.37.2,1.19.61,2.21,1.47,3.24.93,1.1,3.73,4.59,5.81,7.99,1.04,1.68,1.89,3.32,2.34,4.43.11.27.2.53.29.75.1.28.18.52.25.72.14.4.21.63.21.63,0,0,1.21,3.62,2.25,7.62.52,2,1,4.08,1.31,5.82.32,1.74.46,3.1.52,3.76.11,1.22.47,2.06,1.06,2.89.3.44.64.83,1,1.36.33.5.73,1.13.75,2.04.91.08,1.82-.29,2.56-.78.72-.48,1.32-1.1,1.76-1.72.89-1.28,1.29-2.72,1.21-4.37-.04-.9-.21-2.65-.57-4.66-.36-2.02-.88-4.32-1.46-6.48-1.15-4.32-2.45-8.11-2.45-8.11,0,0-.08-.24-.22-.66-.07-.21-.16-.47-.26-.76-.13-.35-.28-.74-.44-1.18-.68-1.7-1.73-3.72-2.94-5.69-2.4-3.96-5.5-7.79-6.64-9.03-1.04-1.14-2.14-1.8-3.46-2.12-1.29-.32-2.84-.33-4.61-.04Z"/>
    <path class="cls-9" d="m224.45,323.48c-.27.02-.55,0-.82-.04-.27-.05-.42-.26-.82-.11-.19.06-.45.27-.65.55-.2.29-.32.61-.4.89-.15.55-.2.88-.26,1.23l1.32,1.41c.76,1.42,2.22,2.26,3.79,2.28.72.02,2.09-.08,3.49-.36,1.41-.28,2.91-.71,4.24-1.1,1.33-.39,2.49-.73,3.26-.9.78-.18,1.14-.21,1.14-.21-.36,0,2.32-.16,4.91-.26,2.64-.12,5.35-.02,6.21.04,1.62.09,2.53-1.24,4.7-3.43-.8-2.98-1.96-4.65-4-4.9-1.12-.16-4.41-.27-7.25-.12-2.89.14-5.19.3-5.54.36,0,0-.89.09-1.99.34-1.12.24-2.48.63-3.78,1-1.3.38-2.58.73-3.55.92-.98.2-1.61.24-1.88.26-.6.02-.74.51-1.45,1.29l1.3,1.42c-.75.33-1.49.5-1.8.52-.08,0-.13.01-.2,0-.03,0-.07-.01-.07-.01.03.01,0,0,.1.05l.11.07c.09.06.18.12.27.19l.17.14.13.1h0s-.01-.02-.01-.02l-.06-.07c-.02-.06-.05-.12-.06-.2-.03-.14-.03-.33-.09-.47-.1-.29-.25-.58-.45-.87Z"/>
    <path class="cls-9" d="m67.66,250.3c-1.37.49-2.44,1.05-3.19,1.7-.7.65-1.06,1.42-1.04,2.36.06.5.1,1.54.37,2.75.23,1.22.63,2.62,1.12,3.92.48,1.3,1.08,2.46,1.52,3.32.49.83.81,1.36.81,1.36,0,0,.08.13.22.37.15.23.37.55.64.95.53.8,1.33,1.82,2.24,2.83,1.8,2.04,4.19,3.87,5.06,4.36,1.57.98,3.34.23,5.59-1.66-.09-3,.09-4.52-.92-5.28-.56-.38-2.21-1.65-3.5-3.07-.64-.71-1.22-1.42-1.6-1.98-.19-.28-.35-.5-.47-.66-.1-.16-.15-.26-.15-.26,0,0-.22-.37-.55-.95-.29-.6-.7-1.41-1.01-2.29-.69-1.75-.93-3.73-1.03-4.38-.05-.6-.45-1.06-1.16-1.56-.67-.5-1.67-1.03-2.95-1.83Z"/>
    <path class="cls-9" d="m65.52,253.97c-.6-.37-1.07-.76-1.44-1.12-.37-.36-.73-.66-.99-.91-.5-.5-.95-.71-1.24-.58-.36.15-1.54.7-2.78,1.29-1.22.58-2.4,1.23-2.4,1.23,0,0-.29.14-.76.41-.46.25-1.09.63-1.76,1.07-1.34.85-2.79,2.26-3.21,2.82-.39.52-.41,1.2-.08,1.94.35.79,1.05,1.67,2.09,2.54,1.39.24,2.39.58,3.05.8.72.23,1.09.35,1.26.19.2-.16.77-.76,1.62-1.34.82-.57,1.75-1.07,1.75-1.07,0,0,.9-.47,2.04-.99,1.11-.51,2.5-1.16,2.98-1.45.47-.29.64-.8.68-1.66,0-.42-.07-.88-.18-1.43-.11-.56-.32-1.15-.64-1.76Z"/>
    <path class="cls-9" d="m57.46,258.32c-3.19-.33-5.18-.06-6.49,1.71-.73.96-2.65,3.94-4.34,6.48-.85,1.27-1.67,2.43-2.28,3.24-.62.83-1,1.25-1,1.25,0,0-.1.11-.27.32-.18.19-.44.47-.76.8-.66.65-1.6,1.49-2.71,2.29-2.18,1.6-5.19,3.22-6.19,3.87-1.84,1.14-2.27,3.1-2.23,6.3,2.97,1.22,4.6,1.92,6.43.93.95-.55,4.06-2.18,6.99-4.32,1.45-1.06,2.76-2.25,3.68-3.18.44-.48.81-.87,1.06-1.15.24-.29.37-.45.37-.45,0,0,.58-.65,1.3-1.6.74-.96,1.67-2.26,2.59-3.61,1.73-2.63,3.63-5.49,4.26-6.45,1.11-1.71.54-3.39-.4-6.46Z"/>
    <path class="cls-9" d="m141.76,212.48c.04,2.89,1.37,4.73,3.05,4.85.5.07,1.4.07,2.51.05,1.07-.06,2.32-.16,3.47-.34,2.31-.33,4.32-.85,4.32-.85,0,0,.51-.11,1.29-.32.78-.19,1.84-.51,2.94-.86,1.1-.38,2.25-.81,3.24-1.26.98-.43,1.8-.9,2.21-1.13.77-.52,1.18-1.17,1.32-2.23.06-.52.03-1-.07-1.65-.11-.64-.35-1.28-.71-1.87-.75-.15-1.34-.39-1.8-.63-.44-.25-.92-.47-1.25-.64-.64-.35-1.21-.49-1.63-.25-.27.12-.79.4-1.51.71-.71.32-1.62.66-2.5.98-.9.29-1.76.57-2.41.74-.64.19-1.07.28-1.07.28,0,0-1.7.4-3.55.65-1.86.28-3.78.31-4.3.27-.26,0-.5.09-.73.26-.2.15-.41.38-.66.7-.55.65-1.01,1.51-2.15,2.55Z"/>
    <path class="cls-9" d="m129.82,217.89c0,1.45-.07,2.54-.02,3.33.02.39.09.7.16.95.07.26.17.44.34.56.45.22,1.39.97,1.79,1.59.4.6.52,1.33.5,1.37-.01,0,.03.19.02.55-.01.19-.03.41-.04.66-.06.27-.08.56-.15.87-.27,1.27-.88,2.88-1.09,3.44-.35,1.02.7,2.22,2.74,4.22,2.85.16,4.45.12,5.01-1.07.3-.62,1.13-2.66,1.59-4.9.11-.56.18-1.15.26-1.67.05-.55.06-1.08.07-1.52.03-.43-.04-.84-.05-1.1-.02-.27-.04-.42-.04-.42,0,0-.02-.59-.27-1.56-.06-.24-.12-.5-.19-.77-.1-.27-.21-.56-.34-.86-.13-.3-.26-.6-.4-.92-.16-.3-.35-.59-.54-.89-1.54-2.41-3.91-3.93-4.63-4.25-.35-.18-.7-.27-1.07-.26-.36.02-.73.17-1.12.38-.77.43-1.61,1.2-2.53,2.25Z"/>
    <path class="cls-9" d="m189.41,112.69c-1.81,2.35-2.86,3.5-2.43,4.78.25.66.98,2.77,1.52,4.75.55,1.99.91,3.82.91,3.82,0,0,.34,1.84.55,3.85.22,2.01.23,4.11.19,4.75,0,1.25,1.34,1.87,3.64,3.78,2.87-.51,4.56-1.56,4.71-3.28.14-.97.12-3.73-.17-6.13-.27-2.41-.71-4.53-.71-4.53,0,0-.38-2.13-1-4.43-.6-2.3-1.46-4.79-1.85-5.61-.65-1.5-2.43-1.87-5.36-1.74Z"/>
    <path class="cls-9" d="m187.77,114.33c-.9,2.03-1.74,3.4-2.4,4.8-.17.35-.31.69-.43,1.04-.14.35-.28.72-.38,1.09-.19.74-.4,1.57-.5,2.5-.14,1.02-.42,3.07-.96,5.68-.52,2.61-1.24,5.76-1.84,8.93-.6,3.16-1,6.36-1.04,8.83,0,.31-.02.6-.02.88,0,.25,0,.5,0,.72,0,.45,0,.84.01,1.16.01.64.02,1,.02,1,0,0,.07,5.79.61,12.07.14,1.56.29,3.17.43,4.72.04.39.08.77.12,1.15.02.32.05.63.07.94.03.59.05,1.18.02,1.76-.07,2.31-.45,4.43-.6,5.52-.6,3.98.31,7.13,3.06,10.57,2.63-3.5,4.45-5.02,5.19-9.22.18-1.13.65-3.44.77-6.62.03-.79.02-1.64-.03-2.51-.03-.43-.07-.86-.1-1.3-.04-.37-.08-.75-.11-1.12-.14-1.51-.28-3.06-.42-4.58-.53-6.06-.63-11.53-.63-11.53,0,0,0-.34-.01-.95,0-.3,0-.67,0-1.1,0-.21,0-.44,0-.68,0-.22.02-.44.03-.68.03-1.88.36-4.56.93-7.48.55-2.92,1.28-6.07,1.83-8.84.57-2.76.89-5.17,1.01-6.38.09-1.14.1-2.15-.07-3.12-.08-.48-.17-.94-.3-1.39-.15-.45-.32-.89-.51-1.31-.74-1.68-2.04-3.2-3.73-4.55Z"/>
    <path class="cls-9" d="m164.23,103.38c.67-.66,1.31-1.39,1.79-2.16.4-.78.79-1.62.92-2.5.09-.87.17-1.85-.12-2.79-.13-.48-.27-.98-.49-1.47-.24-.47-.52-.95-.85-1.44-.34-.54-.97-1.22-1.74-2.08-.41-.38-.87-.79-1.35-1.23-.5-.41-1.05-.8-1.63-1.22-2.33-1.61-5.26-2.88-8.13-3.69-2.87-.81-5.71-1.21-7.98-1.16-1.1,0-1.96.1-2.58.13-.61.05-.93.12-.93.12,0,0-.33.05-.93.13-.6.06-1.42.24-2.43.45-2,.44-4.63,1.19-7.23,2.25-2.62,1.04-5.24,2.33-7.39,3.57-2.14,1.25-3.83,2.41-4.65,3.01-3.01,2.27-3.85,4.93-3.88,8.89,3.94-.3,6.12-.23,8.73-2.08.72-.48,2.16-1.45,4-2.52,1.85-1.06,4.11-2.17,6.31-3.06,2.21-.91,4.36-1.53,5.94-1.88.79-.17,1.44-.32,1.88-.36.45-.06.7-.1.7-.1,0,0,.26-.05.69-.08.43,0,1.07-.09,1.8-.08,1.4-.04,3.52.26,5.65.87,2.13.6,4.24,1.55,5.7,2.56.35.27.7.5,1,.74.28.25.54.48.78.69.39.46.77.8.92,1.06.16.23.33.44.53.62.16.2.31.38.5.55.42.33.71.69,1.22,1.04.47.36.9.79,1.51,1.29.53.52,1.08,1.14,1.74,1.93Z"/>
    <path class="cls-9" d="m117.83,101.84c-.93-2.03-1.99-3.62-3.28-4.9-1.31-1.25-2.89-2.24-5.07-2.9-1.18-.37-3.57-1.03-6.57-1.55-3.01-.51-6.63-.94-10.37-.61-.94.1-1.86.18-2.8.4-.92.15-1.85.45-2.74.74-1.69.61-3.09,1.31-4.25,2.03-1.16.7-2.04,1.37-2.64,1.85-.31.23-.53.43-.68.56-.15.13-.23.2-.23.2,0,0-.08.07-.23.2-.15.13-.38.33-.64.59-.55.52-1.31,1.28-2.15,2.26-1.7,1.94-3.6,4.77-5.21,7.74-1.68,3.08-2.98,6.17-4.12,8.87-1.11,2.69-1.93,4.95-2.31,6.11-.7,2.13-.87,3.98-.59,5.84.15.93.4,1.86.8,2.82.21.48.45.97.75,1.44.31.47.69.95,1.18,1.24.33-1.05,1.03-1.62,1.59-2.28.59-.62,1.15-1.2,1.65-1.82,1.01-1.22,1.82-2.58,2.51-4.49.38-1.03,1.14-3.11,2.19-5.64,1.05-2.51,2.35-5.55,3.73-8.07,1.41-2.63,2.93-4.87,4.18-6.32,1.24-1.46,2.15-2.2,2.15-2.2,0,0,.21-.21.63-.52.41-.32,1-.77,1.77-1.22.74-.47,1.73-.94,2.74-1.3.48-.15.97-.32,1.57-.41.56-.14,1.21-.19,1.85-.26,2.62-.24,5.68.09,8.22.52,2.56.44,4.65,1,5.68,1.29,1.92.51,3.49.69,5.14.57,1.64-.09,3.33-.48,5.54-.8Z"/>
    <path class="cls-9" d="m77.75,192.55c-5.59.03-10.29,2.82-13.37,7.42-3.06,4.57-4.47,10.23-4.94,15.65-.12,1.41,3.02.88,3.12-.32.68-7.84,4.12-20.72,14.03-20.77.7,0,1.68-.2,2.04-.89.32-.63-.28-1.09-.89-1.08h0Z"/>
    <path class="cls-9" d="m145.07,344.83c-2.78-.63-4.71-.2-5.32,1.24-.4.81-1.11,3.18-1.48,5.29-.38,2.11-.55,3.98-.55,3.98,0,0-.22,1.88-.31,3.93-.1,2.05-.08,4.29,0,5.04.11,1.38,1.62,2.14,4.37,2.96,2.57-1.33,3.96-2.03,3.99-3.23,0-.64-.02-2.61.05-4.41.06-1.8.22-3.41.22-3.41,0,0,.18-1.61.5-3.3.31-1.7.83-3.36,1.01-3.83.31-.97-.87-1.82-2.48-4.26Z"/>
    <path class="cls-9" d="m134.66,343.44c-1.64.78-2.59,1.48-2.97,2.99-.21.82-.69,3.31-.91,5.61-.24,2.29-.29,4.37-.29,4.37,0,0-.08,2.08-.04,4.34.03,2.27.17,4.71.24,5.53.12,1.5.91,2.3,2.33,3.44,1.24-1.34,1.9-2.22,1.85-3.69-.03-.8-.17-3.18-.21-5.35-.05-2.17.01-4.13.01-4.13,0,0,.06-1.96.29-4.08.21-2.12.65-4.39.81-5.13.28-1.39-.2-2.31-1.11-3.9Z"/>
    <path class="cls-9" d="m154.92,344.65c-1.02,1.45-1.63,2.06-1.59,3.28.05.63.06,2.65-.1,4.56-.15,1.91-.36,3.68-.36,3.68,0,0-.22,1.78-.47,3.74-.25,1.97-.48,4.17-.51,4.92-.08,1.37.62,2.24,1.93,3.35,1.35-1.1,2.1-1.74,2.23-3.02.07-.69.28-2.79.52-4.75.23-1.97.45-3.77.45-3.77,0,0,.23-1.8.4-3.84.19-2.03.17-4.35.08-5.15-.11-1.44-1.03-2.31-2.59-3.01Z"/>
    <path class="cls-9" d="m124.81,343.19c-.18-.1-.37-.25-.58-.26-.22-.03-.46-.02-.65,0-.43.07-.77.22-1.09.4-.6.37-1,.87-1.23,1.54-.27.73-.73,2.81-.97,4.66-.25,1.85-.38,3.52-.38,3.52,0,0-.16,1.67-.27,3.49-.11,1.83-.18,3.82-.17,4.49,0,1.23.72,1.95,2.06,2.95,1.33-1.01,2.06-1.66,2.12-2.85.03-.64.11-2.58.19-4.35.1-1.77.23-3.37.23-3.37,0,0,.14-1.6.38-3.32.23-1.73.63-3.49.79-4,.14-.48.09-.86-.08-1.28-.09-.19-.19-.42-.31-.68-.05-.15-.11-.26-.13-.43-.04-.18.03-.34.09-.54Z"/>
    <path class="cls-9" d="m123.71,345.93c1.43-.19,2.17-.18,2.38-.62.1-.24.43-.97.85-1.63.4-.67.85-1.26.85-1.26,0,0,.45-.59,1.01-1.21.58-.63,1.2-1.31,1.41-1.54.38-.44.11-1.18-.47-2.49-1.3-.6-2.06-.86-2.52-.43-.25.23-.97.97-1.59,1.7-.63.73-1.17,1.45-1.17,1.45,0,0-.56.71-1.1,1.58-.55.86-1.03,1.93-1.15,2.31-.23.69.33,1.36,1.51,2.15Z"/>
    <path class="cls-9" d="m124.87,369.74c1.28.55,1.91.94,2.2.7.15-.12.61-.53,1.11-.9.49-.37.99-.7.99-.7,0,0,.52-.33,1.09-.68.58-.36,1.25-.8,1.46-.97.39-.31.23-1.09-.28-2.38-1.12-.82-1.71-1.29-2.08-1.08-.2.13-.81.52-1.37.88-.59.39-1.13.74-1.13.74,0,0-.56.35-1.18.8-.62.44-1.29,1.03-1.5,1.26-.38.41-.1,1.19.68,2.33Z"/>
    <path class="cls-9" d="m178.08,359.62c1.32-.63,2.66-1.21,3.97-1.88,1.56-.81,3.3-1.68,4.51-3,.43-.47.89-1.07.76-1.75-.09-.46-1.43-.12-1.68-.05-.29.08-1.52.4-1.43.88.05.26.03.32-.06.55-.04.11-.1.21-.16.31-.04.06-.08.12-.13.18-.1.14.02-.01-.07.08-.22.25-.47.47-.73.68-.07.05-.13.11-.2.16-.06.04-.21.15-.06.05-.17.12-.35.25-.53.36-.34.22-.68.43-1.03.63-.19.11-.38.21-.57.32-.1.06-.26.14-.06.03-.1.05-.21.11-.31.16-.73.38-1.46.73-2.21,1.07-.6.28-1.21.54-1.8.83-.26.12-1.06.62-.39.79s1.58-.12,2.17-.4h0Z"/>
    <path class="cls-9" d="m105.28,174.01c-.59-.54-.82-1.03-1.09-1.38-.25-.34-.51-.56-.91-.62-.43-.04-1.88-.37-3.61-.47-.85-.04-1.76.03-2.45.22-.34.08-.63.2-.83.26-.19.07-.28.12-.28.12,0,0-.4.17-.93.46-.53.29-1.18.72-1.81,1.21-1.28.96-2.47,2.26-2.83,2.77-.66.89-.5,2.05.5,3.26,1.53-.29,2.28-.05,2.77-.66.25-.31,1.14-1.3,2.13-2.05.48-.38.96-.69,1.3-.89.34-.19.53-.27.53-.27.06-.02.56-.29,1.72-.23,1.1.05,2.67.37,3.27.41.54.04,1.02-.1,1.48-.46.43-.34.87-.94,1.04-1.69Z"/>
    <path class="cls-9" d="m52.35,141.52c.77.32,1.19.71,1.45,1.03.25.3.32.51.54.58.11.03.4.15.83.43.42.29.94.76,1.42,1.3.48.53.92,1.1,1.24,1.54.31.44.51.73.51.73,0,0,.78,1.17,1.55,2.56.78,1.39,1.56,2.97,1.83,3.49.51.96,1.42,1.23,3.03,1.48.8-1.41,1.19-2.29.72-3.32-.25-.56-1.07-2.22-1.92-3.72-.84-1.5-1.75-2.83-1.75-2.83,0,0-.21-.34-.58-.85-.37-.51-.88-1.2-1.51-1.9-.63-.7-1.37-1.41-2.17-1.95-.79-.54-1.62-.89-2.1-.99-.85-.21-1.68-.04-2.23.44-.56.45-.85,1.19-.88,1.98Z"/>
    <path class="cls-9" d="m23.52,152.84c.63.47.76,1.05.85,1.39.1.37.19.6.46.72.28.12,1.35.77,2.35,1.62.99.82,1.89,1.68,1.89,1.68,0,0,.89.87,1.87,1.83.98.98,2.12,2.07,2.54,2.42.75.63,1.8.56,3.17-.18.04-1.54.28-2.31-.37-2.92-.35-.34-1.42-1.37-2.39-2.32-1.02-.98-1.95-1.87-1.95-1.87,0,0-.92-.91-2.08-1.87-.58-.48-1.21-.97-1.82-1.37-.59-.4-1.19-.69-1.5-.82-.59-.24-1.21-.24-1.8.04-.59.28-1.14.87-1.23,1.65Z"/>
    <path class="cls-9" d="m25.34,165.25c-1.44.01-2.34.98-2.19,1.89.04.54.45,1.9.96,2.88.5,1.01,1.03,1.82,1.03,1.82,0,0,.5.84,1.11,1.69.6.86,1.29,1.74,1.54,2.02.46.52,1.27.36,2.65-.08.66-1.29.99-2.02.62-2.53-.2-.28-.84-1.09-1.38-1.84-.55-.75-.98-1.45-.98-1.45,0,0-.44-.71-.81-1.47-.39-.78-.58-1.51-.61-1.68-.02-.08-.08-.15-.18-.22-.09-.05-.22-.09-.39-.16-.37-.16-.82-.31-1.37-.86Z"/>
    <path class="cls-9" d="m14.03,193.35c.56.53.73.96.91,1.32.08.16.13.28.18.38.06.09.13.16.2.16.13,0,.79.11,1.53.4.71.27,1.4.61,1.4.61,0,0,.67.34,1.42.77.75.43,1.59.93,1.89,1.09.53.28,1.26-.14,2.33-1.08.18-1.42.3-2.18-.2-2.52-.27-.17-1.12-.69-1.95-1.15-.82-.46-1.63-.85-1.63-.85,0,0-.79-.41-1.76-.79-.95-.4-2.24-.66-2.77-.65-.87-.06-1.67.9-1.55,2.31Z"/>
    <path class="cls-9" d="m200.91,142.98c2.06-1.86,3.73-3.43,5.43-5.05.85-.81,1.7-1.63,2.61-2.47.91-.81,1.92-1.71,2.96-2.28.33-.19.84-.42,1.2-.41.19,0,.29,0,.5.15.21.14.54.49.87,1.09.08.21.27.49.38.82.13.31.23.56.23.56,0,0,.31.98.45,1.5.61,2.14.51,3.61.11,4.58-.41.97-1.02,1.62-1.5,2.04-1.01.91-2.17,1.73-3.2,2.56-1.05.83-2.03,1.66-2.91,2.6-.88.93-1.67,1.96-2.25,3.16-.58,1.19-.93,2.55-.87,3.93,1.25-2.51,3.13-3.56,5.05-4.7,1.09-.61,2.11-1.19,3.17-1.79,1.15-.69,2.41-1.43,3.81-2.65.7-.62,1.79-1.67,2.61-3.61.38-.97.63-2.15.63-3.4,0-1.25-.23-2.54-.58-3.85-.17-.66-.56-1.75-.56-1.75,0,0-.13-.35-.29-.78-.14-.43-.43-.95-.58-1.24-.56-1.01-1.27-1.93-2.23-2.57-.94-.66-2.09-.9-2.93-.85-1.73.09-2.52.65-3.14.95-1.76,1.02-2.81,2.19-3.74,3.27-.91,1.1-1.61,2.18-2.22,3.25-1.22,2.16-2.06,4.33-3,6.93Z"/>
    <path class="cls-9" d="m176.46,213.79c-.89-.19-1.71.24-2.27.69-.54.45-.91,1.06-1.05,1.78-.2.81-.43,3.1-.58,5-.09.95-.2,1.82-.32,2.25-.17.6-.29.99-.29.99,0,0-.5,1.55-1.35,3.18-.82,1.63-1.97,3.33-2.35,3.9-.7,1.05-.56,2.05-.19,3.75,1.73-.04,2.79-.24,3.62-1.35.45-.6,1.72-2.48,2.67-4.39.97-1.89,1.57-3.78,1.57-3.78,0,0,.16-.46.37-1.2.25-.92.36-1.93.46-2.94.17-2.04.38-4.04.5-4.63.08-.58.01-.98-.2-1.45-.16-.44-.61-.92-.6-1.78Z"/>
    <path class="cls-9" d="m177.55,216.35c-1.36,1.09-2.1,1.73-2.25,2.95-.08.66-.33,2.64-.81,4.38-.46,1.75-1.12,3.25-1.12,3.25,0,0-.17.37-.44.94-.29.56-.69,1.33-1.17,2.09-.94,1.54-2.24,3.05-2.66,3.55-.81.92-.77,1.9-.67,3.64,1.7.23,2.81.17,3.78-.84.52-.56,2.02-2.3,3.12-4.13.56-.9,1.03-1.8,1.36-2.47.31-.68.51-1.12.51-1.12,0,0,.79-1.77,1.34-3.82.58-2.04.86-4.32.91-5.07.1-1.4-.6-2.25-1.91-3.36Z"/>
    <path class="cls-9" d="m162.22,214.52c.17.18.26.39.25.64,0,.11-.02.22-.07.31-.03.08-.08.17-.13.26-.22.38-.43.73-.61,1.05-.42.72-.78,1.53-1.11,2.66-.26.96-1.09,3.47-2.06,5.98-.32.83-.64,1.66-.94,2.45-.46,1.2-.9,2.37-1.19,3.35-.45,1.88-.63,3.02-.79,3.77,2.19-.44,3.06-.53,3.86-.78.18-.05.33-.09.45-.13.14-.06.24-.1.32-.14.16-.07.22-.1.22-.1,0,0,.08-.04.24-.1.16-.07.38-.15.7-.33.31-.17.69-.38,1.13-.62.44-.28.94-.6,1.49-.94.33-.23.68-.47,1.06-.74.32-.24.66-.48,1.01-.75.7-.53,1.44-1.11,2.18-1.73,2.99-2.44,5.88-5.55,6.75-6.75.82-1.06,1.3-2.09,1.49-3.2.1-.55.11-1.14.02-1.74-.1-.6-.31-1.27-.79-1.69-.18.6-.59.91-.91,1.2-.36.29-.69.53-1.04.8-.68.53-1.31,1.13-2.04,2.02-.74.97-3.4,3.84-6.18,6.13-.69.58-1.37,1.13-2.02,1.61-.32.24-.63.47-.93.69-.24.17-.47.33-.68.48h0s0,0,0,0h0c.05-.13-.21.57.49-1.27.99-2.55,1.88-5.25,2.15-6.36.34-1.28.39-2.4.13-3.52-.13-.55-.33-1.13-.72-1.7-.38-.6-1.06-1.03-1.78-.81Z"/>
  </g>
  <g id="Layer_8" data-name="Layer 8">
    <path class="cls-10" d="m188.87,109.82c2.41,0,2.42-3.75,0-3.75s-2.42,3.75,0,3.75h0Z"/>
    <path class="cls-10" d="m184.91,68.13c-3.71-5.81-9.03-10.49-15.5-12.97-6.23-2.39-13.28-2.28-19.51.08-1.77.67-3.48,1.48-5.12,2.43-2.24,1.29-.22,4.77,2.03,3.47,5.5-3.18,11.93-4.59,18.19-3.12,5.98,1.4,11.2,5.1,14.91,9.95,4.35,5.69,6.72,12.8,7.28,19.9.34,4.3.11,8.65-.65,12.89-.96,5.36-2.38,10.63-3.3,16.01-2.67,15.56-3.66,31.48-2.62,47.24.1,1.5.23,3,.35,4.49.25,3.19-.04,6.49-.26,9.68-.59,8.31-2.1,16.57-4.84,24.44-2.06,5.91-4.82,11.48-8.34,16.48.19-2.06.15-4.13-.03-6.07-.79-8.39-3.32-16.56-5.13-24.76-2.27-10.31-3.66-20.79-2.94-31.36.42-6.14,1.55-12.2,3.31-18.09,1.78-5.96,3.69-11.82,4.87-17.94,1.8-9.35,2.56-19.59-.87-28.68-3.22-8.52-9.88-14.67-18.18-18.21-4.84-2.06-10.13-2.98-15.28-1.5-4.17,1.19-7.83,3.76-10.77,6.9-2.68,2.86-4.87,6.17-6.66,9.64-.3.58-.58,1.16-.85,1.75-.44-.76-.95-1.48-1.52-2.16-2.29-2.75-5.6-4.51-8.98-5.53-4.97-1.5-10.83-1.88-15.94-.99-6.38,1.11-11.14,6.19-14.38,11.47-3.89,6.35-6.28,13.62-8.11,20.8-1.74,6.83-2.92,13.78-3.79,20.77-.29,2.34-.54,4.68-.75,7.02-.1,1.15-.09,2.35-.35,3.46,0,.02-.01.05-.02.07.04.08.05.17.08.26.27-.03.55.04.75.21.43-.09.96.06,1.15.48.51,1.11.91,2.26,1.29,3.41.43-1.81.79-3.64.92-5.44.1-1.3.2-2.59.32-3.88.5-5.25,1.11-9.78,2.05-15,1.2-6.65,2.76-13.27,5.03-19.64,1.98-5.55,4.66-11.33,8.69-15.49,1.74-1.8,3.79-3.28,5.9-4.02,1.37-.48,2.41-.65,3.59-.72,2.79-.17,5.63-.16,8.41.23,3.29.46,6.99,1.59,9.41,3.52.5.4.97.84,1.4,1.3.19.2.37.41.55.63-.08-.1.19.25.36.5.27.4.51.81.73,1.23.11.22.21.43.32.66.15.33-.02-.05-.04-.1.2.42.35.81.67,1.16.88.96,2.28,1.23,3.47.76,1.08-.43,1.51-1.29,1.96-2.27.58-1.28,1.2-2.53,1.88-3.76,1.67-3.01,3.65-5.86,6.1-8.29,2.57-2.54,5.66-4.52,9.22-5.31,4.23-.94,8.54.13,12.41,1.91,6.91,3.18,12.6,8.4,15.23,15.66,2.84,7.84,2.43,16.53,1,24.63-1.93,10.98-6.43,21.28-7.95,32.34-1.36,9.9-.93,19.83.67,29.67,1.34,8.17,3.54,16.14,5.3,24.22.7,3.22,1.31,6.36,1.53,9.57.2,2.91.12,5.49-.63,8.11-.53,1.86-1.44,3.81-2.77,5.36-.39.35-.78.71-1.11,1.1-.69.83-.83,2.02,0,2.84,0,0,0,0,0,0,.82.81,2.01.7,2.84,0,.66-.56,1.26-1.18,1.79-1.83.58-.54,1.17-1.07,1.7-1.63,1.46-1.54,2.81-3.18,4.1-4.87,3.51-4.6,6.29-9.67,8.52-15,3.12-7.46,5-15.35,6.05-23.36.8-6.14,1.23-12.38.75-18.56-1.18-15-.53-30.2,1.76-45.07.88-5.68,2.08-11.27,3.34-16.88,1.02-4.53,1.55-9.2,1.44-13.84-.19-7.82-2.2-15.74-6.44-22.37Z"/>
    <path class="cls-10" d="m53.14,177.87c.5.26.99.55,1.45.89,1.76-3.67,3.33-7.45,4.7-11.28-.81-1.44-1.35-3.06-1.64-4.68-.14-.79-.24-1.63-.25-2.47-.29.96-.58,1.93-.89,2.88-1.55,4.69-3.37,9.29-5.51,13.75.73.26,1.45.56,2.14.91Z"/>
    <path class="cls-10" d="m35.4,203.78c-1.07-.3-1.94-.91-2.81-1.52-3.08,2.76-6.4,5.25-10.01,7.31-1.11.63-2.24,1.23-3.39,1.79-.55.27-1.11.53-1.67.78-.24.11-.49.21-.73.32-.19.08-.37.15-.56.23-.75.3-1.51.58-2.28.85.65-.56,1.28-1.12,1.88-1.69,3.63-3.43,6.6-7.49,8.87-11.92-.6-.14-1.18-.33-1.71-.59-.76-.1-1.51-.26-2.24-.49-.26.49-.51.98-.79,1.45-2.8,4.72-6.84,9.09-11.05,12.09-1.67,1.19-3.43,2.27-5.28,3.14-.17.08-.35.16-.52.24-.02,0-.02.01-.04.02-.02,0-.02,0-.04.02-.25.09-.49.19-.74.27-.03.01-.08.02-.12.03-.25.02-.49.05-.71.12-1.94.56-1.92,3.37.02,3.9.48.13.97.07,1.44-.04.03,0,.07,0,.1,0,1-.09,2-.22,3-.37,2.89-.43,5.73-1.15,8.49-2.09,8.27-2.81,15.74-7.57,22.09-13.53-.41-.09-.81-.19-1.2-.29Z"/>
    <path class="cls-10" d="m27.48,193.3c.36-1.11.69-2.23.97-3.37.52-2.16.88-4.36,1.12-6.57-.14-.12-.26-.28-.33-.49,0,0,0,0,0,0-.21-.22-.42-.44-.63-.66-.83-.85-1.65-1.7-2.39-2.63-.13-.16-.25-.33-.37-.5-.15,4.42-.87,8.79-2.21,12.97,1.36.13,2.7.54,3.85,1.25Z"/>
    <path class="cls-10" d="m229.35,56.85c-3.5-9.28-8.69-17.81-15.29-25.21-6.38-7.14-14.03-13.15-22.35-17.88-8.44-4.8-17.61-8.35-27.05-10.63C155.18.84,145.37-.22,135.61.04c-9.57.25-19.17,1.74-28.31,4.62-8.96,2.82-17.56,6.97-25.15,12.54-6.5,4.77-12.17,10.54-17.06,16.94-7.81,10.21-14.32,22.61-15.6,35.55-.33,3.38-.18,6.78.44,10.12-.23.28-.45.56-.67.84-.44.58-.84,1.18-1.2,1.8-1.23,2.11-2.12,4.43-2.78,6.77-1.02,3.64-1.5,7.45-1.65,11.22-.1,2.54-.04,5.07.11,7.61.12,1.87.12,3.74-.24,5.58-1.17,6.02-5.28,10.6-10.45,13.66-2.24,1.33-4.37,2.29-6.74,3.11-2.07.72-5.39.94-6.03,3.42-.92,3.55,3.77,4.61,6.28,4.87,1.74.18,3.51.08,5.25-.13,1.31-.16,2.61-.36,3.9-.62.51-.1,1.02-.23,1.53-.37-.1.14-.21.27-.31.41-.74,1.02-1.44,2.08-2.09,3.16-1.69,2.8-3.09,5.78-4.28,8.83-.58,1.49-1.07,3.01-1.52,4.54.1.04.2.08.3.12.07-.05.12-.12.19-.17.31-.22.67-.19.98-.03.39-.62.84-1.18,1.4-1.61.45-.34,1.22-.08,1.47.38.06.12.11.25.17.38,1.18-3.47,2.65-6.83,4.52-10,.79-1.34,1.64-2.64,2.56-3.89.09-.13.19-.25.28-.37.04-.05.06-.08.08-.11.01-.02.02-.03.04-.05.17-.22.35-.43.52-.65.89-1.11,1.4-2.39.72-3.76-.69-1.4-2.14-1.93-3.62-1.65-1.7.33-3.36.85-5.07,1.15-2.24.4-4.52.61-6.79.43-.15-.01-.31-.03-.48-.06.05-.02.1-.03.15-.04,7.15-2.31,14.22-6.38,18.22-12.95,2.55-4.2,3.37-8.99,3.07-13.85-.34-5.62-.2-11.35,1.23-16.82.74-2.86,1.62-5.25,3.32-7.69.11-.16.23-.32.34-.47,0,0,0,0,0,0,.02-.02.04-.04.07-.08.33-.37.76-.77.98-1.2.67-1.27.06-2.72-.12-4.05-.18-1.32-.25-2.66-.25-3.98-.03-10.06,4.15-19.83,9.19-28.35,1.86-3.13,3.88-6.18,6.11-9.07.08-.1.29-.37.34-.43.15-.18.29-.37.44-.55.24-.29.48-.59.74-.87.67-.73,1.29-1.5,1.93-2.26,4.24-4.99,9.12-9.34,14.41-12.93,10.98-7.46,23.48-11.91,36.62-13.91,13.02-1.98,26.9-1.32,39.8,1.7,13.19,3.09,25.62,8.58,36.5,16.76,10.65,8.01,19.34,18.71,24.75,31.07,6.13,14,7.61,29.81,5.85,45.01-1.05,9.1-3.29,18.04-6.22,26.71-.83,2.46,3.05,3.51,3.88,1.07,4.19-12.44,6.91-25.48,7.06-38.64.13-10.85-1.54-21.8-5.38-31.97Z"/>
    <path class="cls-10" d="m16.76,212.47c-.24.1-.1.04,0,0h0Z"/>
    <path class="cls-10" d="m2.08,220.15s.17-.02.23-.02c.06,0,.11-.01.17-.01-.15.06-.29.08-.4.04Z"/>
    <path class="cls-10" d="m50.19,79.52s-.07.07-.1.11h0c.06-.32.33-.28.1-.11Z"/>
    <path class="cls-10" d="m52.96,82.52c1.52-3.54,3.69-6.93,6.1-9.92,4.44-5.5,10.53-10.27,17.89-10.48,5.58-.16,10.75,2.24,15.24,5.37,1.42.99,2.76-1.33,1.35-2.31-4.38-3.05-9.36-5.35-14.74-5.7-4.08-.26-8.13.75-11.72,2.67-6.08,3.26-10.75,8.88-14.21,14.75-.81,1.38-1.6,2.8-2.23,4.27-.67,1.57,1.64,2.94,2.31,1.35h0Z"/>
    <path class="cls-10" d="m162.46,200.98c-.02-.18-.02-.35-.03-.53-1.69.99-3.39,1.94-5.14,2.81-5.69,2.82-11.89,5.04-18.26,5.52-3.95.3-7.96-.07-11.88-.51-4.66-.52-9.3-1.37-13.86-2.46-7.85-1.89-15.56-4.55-22.76-8.23-.1.99-.36,1.99-.62,2.9-.11.38-.23.75-.36,1.12,5.22,2.6,10.72,4.69,16.28,6.36,9.16,2.76,18.7,4.45,28.26,4.89,6.79.31,13.44-1.11,19.73-3.64,3.26-1.31,6.41-2.86,9.47-4.58-.4-1.18-.72-2.38-.84-3.64Z"/>
    <path class="cls-10" d="m230.69,139.9c-.3-5.36-1.53-11.15-4.02-15.93-1.83-3.51-4.86-6.35-8.96-6.64-3.64-.25-7.18,1.59-10.01,3.7-3.92,2.93-7.18,6.65-9.96,10.66-2.24,3.23-4.43,6.88-5.33,10.74-.59,2.52,3.28,3.59,3.88,1.07.7-2.97,2.17-5.54,3.89-8.23,2.08-3.24,4.52-6.26,7.34-8.88,2.45-2.28,5.21-4.24,8.33-4.95.47-.11.91-.12,1.67-.11.52,0,.13-.04.63.08.37.09.73.18,1.09.32,0,0,.54.28.66.35.15.09.71.49.64.43.66.53,1.24,1.18,1.71,1.88,2.61,3.84,3.77,9.06,4.27,13.62.42,3.79.26,7.55-1.05,11.14-.93,2.55-2.5,4.77-4.62,6.65-.86.76-1.65,1.33-2.87,2.06-.53.31-1.07.61-1.63.88-.28.14-.57.27-.85.4-.05.02-.11.05-.16.07-.01,0-.38.16-.44.18-2.1.82-4.28,1.41-6.51,1.77-.19.03-.38.06-.57.09-.01,0-.01,0-.03,0-.03,0-.05,0-.09,0-.3.03-.59.07-.89.09-.26.02-.53.04-.79.05-.68.02-1.41.36-1.74,1-.13.25-.3.48-.46.72-.11.16-.23.33-.35.49-.08.11-.16.22-.24.32-.03.04-.12.16-.19.25-.05.07-.12.15-.14.18-.11.14-.22.28-.33.42-.25.31-.5.62-.75.92-.57.7-1.16,1.39-1.74,2.08-3.34,3.9-6.86,7.65-10.52,11.25-2.2,2.16-4.45,4.29-6.76,6.36-.21.55-.42,1.11-.65,1.66-.38,1.88-.93,3.72-1.57,5.53,2.8-2.32,5.51-4.72,8.14-7.18,4.21-3.93,8.25-8.06,12.08-12.36,2.2-2.47,4.42-4.99,6.33-7.69,8.68-.6,17.84-5.31,21.5-13.42,1.7-3.78,2.28-7.93,2.05-12.05Z"/>
    <path class="cls-10" d="m72.04,172.03c-.07-2.35-.31-4.7-.66-7.02-1.01-6.81-3.07-13.5-5.86-19.79-.16-.35-.32-.71-.49-1.06-.21-.43-.49-.7-.82-.86.39,1.09.56,2.24.56,3.4,0,.92-.1,1.94-.44,2.84.3.81.64,1.61.97,2.39.82,1.96,1.51,3.87,1.99,5.94.76,3.26,1.3,6.56,1.73,9.88,1.03,3,1.97,6.03,2.84,9.08.07-1.6.21-3.2.17-4.81Z"/>
    <path class="cls-10" d="m186.35,106.08c.21.26-.35-.49-.16-.21.11.17.24.32.36.48.39.54.76,1.09,1.12,1.66,1.26,1.96,2.37,4.02,3.34,6.13,3.1,6.7,4.69,14.06,4.61,21.44-.03,2.59,3.99,2.59,4.02,0,.09-8.02-1.71-15.91-5.03-23.2-1.46-3.21-3.2-6.38-5.41-9.15-.68-.85-2.13-.7-2.84,0-.85.83-.67,2,0,2.84h0Z"/>
    <path class="cls-10" d="m162.87,86.65c-2.89-1.97-6.45-3.23-9.8-4.08-7.81-1.97-16.09-1.34-23.54,1.72-6.09,2.51-11.45,6.37-16.18,10.92l2.44-.31c-3.15-1.84-6.76-3.12-10.27-4.02-7.22-1.85-15.06-1.93-22.03.91-5.13,2.09-9.51,5.47-13.07,9.68-1.66,1.96,1.17,4.82,2.84,2.84,5.37-6.35,12.62-10.44,21.02-10.73,3.18-.11,6.35.25,9.45.99,1.38.33,2.74.73,4.08,1.18.52.18,1.04.37,1.55.56.27.1.53.21.79.31.11.04.22.09.33.14.23.1-.28-.12.07.03,1.09.47,2.19.97,3.21,1.57.78.46,1.79.31,2.44-.31,6.94-6.68,15.63-11.91,25.44-12.55,3.29-.21,6.58.04,9.79.8,1.3.31,2.59.68,3.85,1.13.51.18,1.02.38,1.53.58.44.18-.1-.05.4.17.24.11.48.22.72.33,1,.47,2.01.98,2.92,1.6,2.14,1.46,4.16-2.02,2.03-3.47h0Z"/>
    <path class="cls-10" d="m139.11,211.43c.04.19.06.38.09.57.1.59-.03-.36.03.26.03.3.07.6.1.9.17,1.83.21,3.68.12,5.51-.24,5.39-1.66,10.68-4.52,15.28-1.37,2.2,2.11,4.22,3.47,2.03,4.59-7.37,6.22-17.08,4.58-25.62-.49-2.54-4.36-1.46-3.88,1.07h0Z"/>
    <path class="cls-10" d="m182.26,218.14c2-1.76,3.83-3.12,6.04-4.65,3.75-2.59,7.85-5.12,12.32-6.23,3.49-.86,7.54.16,11.05,1.17.91.26,1.81.56,2.69.91.2.08.39.16.58.24-.59-.24.21.09.35.16.49.22.97.46,1.45.71,2.18,1.14,4.03,2.45,5.56,3.77,5.32,4.57,9.02,10.31,12.2,16.59,6.24,12.32,9.83,25.93,12.67,39.38l.52-1.96c-.15.13-.3.25-.45.38-.49.41.33-.23-.2.15-.29.21-.57.42-.86.62-1.75,1.22-3.61,2.3-5.51,3.28-7.05,3.63-14.87,5.85-22.73,7.15-6.72,1.11-13.56,1.46-20.37,1.34l2.01,2.01c.05-3.49-.14-7-.43-10.48-.53-6.41-1.4-13.01-3.69-19.06-1.16-3.07-2.69-6.16-5.16-8.38-1.92-1.73-4.77,1.11-2.84,2.84,4.02,3.62,5.46,10,6.44,15.22s1.46,10.86,1.61,16.33c.03,1.18.06,2.35.04,3.53-.02,1.1.93,1.99,2.01,2.01,11.29.21,22.74-.95,33.55-4.34,5.83-1.83,11.63-4.27,16.71-7.72.93-.63,1.86-1.29,2.7-2.04.55-.49.66-1.27.52-1.96-2.72-12.85-6.19-25.7-11.76-37.64-3.24-6.94-7.33-13.76-12.95-19.04-3.59-3.38-7.8-5.99-12.49-7.54-1.61-.53-3.25-.91-4.91-1.23-2-.38-4.1-.91-6.13-.79-5.53.33-10.78,3.33-15.3,6.32-2.8,1.85-5.54,3.88-8.07,6.1-1.95,1.71.91,4.55,2.84,2.84h0Z"/>
    <path class="cls-10" d="m180.84,359.99c8.49-.21,17.01.5,25.43,1.56,5.32.67,10.56,1.55,15.92,1.88,12.71.8,26.08-.19,37.8-5.56,3.08-1.41,5.97-3.16,8.59-5.31,1.19-.98,2.51-2.1,3.35-3.41.22-.34.36-.71.36-1.13,0-1.9-.6-3.99-.99-5.84-.84-4.02-1.96-7.97-3.23-11.88-2.53-7.81-5.65-15.41-8.89-22.94-2.4-5.58-5.19-11.1-6.91-16.94-1.75-5.9-2.86-12.02-3.76-18.1-.06-.41-.12-.82-.18-1.23-.15-1.07-1.53-1.67-2.47-1.4-1.16.33-1.55,1.39-1.4,2.47,1.12,8.26,2.6,16.79,5.78,24.52,4.32,10.5,9.16,20.75,12.88,31.49,2.3,6.62,4.28,13.42,5.22,20.38l.2-1.55c-.25.35.42-.48.11-.14-.19.21-.37.44-.57.66-.74.81-1.56,1.55-2.4,2.24-.13.1-.26.21-.39.31-.44.35.23-.16-.16.12-.36.27-.72.53-1.1.79-.76.52-1.54,1.01-2.33,1.48-2.1,1.23-4.25,2.23-6.35,3.02-13.68,5.17-29.26,4.95-43.4,2.83-10.28-1.54-20.73-2.6-31.14-2.35-2.58.06-2.59,4.08,0,4.02h0Z"/>
    <path class="cls-10" d="m252.66,324.85c-8.36-3.67-18.71-2.96-26.79.99-3.52,1.72-6.42,4.32-9.73,6.38-3.09,1.92-6.38,3.45-9.86,4.53-5.29,1.64-10.82,2.21-16.34,1.81-2.55-.19-5.1-.51-7.66-1.35s-3.52,3.07-1.07,3.88c2.15.71,4.46,1.03,6.7,1.3,5.2.62,10.52.34,15.64-.76,7.04-1.51,13.32-4.76,19.05-9.05,5.39-4.04,11.8-6.22,18.54-6.04,2.35.06,4.67.39,6.95.99.73.19,1.46.41,2.17.67.3.11,1.22.5.37.13,1,.44,2.15.29,2.75-.72.51-.85.27-2.32-.72-2.75h0Z"/>
    <path class="cls-10" d="m200.09,285.99c2.28,4.5,4.42,9.07,6.49,13.67,3.46,7.69,6.91,15.56,9.03,23.74.23.89.44,1.78.61,2.69.08.44.16.88.22,1.32-.05-.37.07.64.08.84.05.64.04,1.27,0,1.91-.03.46.11-.46,0-.03-.04.15-.07.3-.1.46-.02.11-.07.21-.1.31-.1.34.24-.47,0-.02-1.23,2.28,2.24,4.31,3.47,2.03,1.36-2.53.74-5.82.18-8.48-.84-4.01-2.21-7.92-3.65-11.75-3.01-8.02-6.54-15.85-10.25-23.58-.83-1.72-1.66-3.44-2.52-5.15-1.17-2.31-4.64-.28-3.47,2.03h0Z"/>
    <path class="cls-10" d="m178.83,217.81c-.05.43.05-.31.03-.23-.06.24-.08.51-.12.75-.16.92-.37,1.84-.61,2.75-.37,1.4-.81,2.77-1.31,4.12-.13.36-.27.71-.41,1.06-.19.48-.14.35-.41.97-.39.88-.81,1.76-1.26,2.61-4.8,9.17-12.78,16.18-22.37,20.15-5.69,2.35-12.22,4.25-18.43,4-1.15-.04-1.68-.1-2.75-.34-.45-.1-.89-.22-1.32-.37-.66-.22-.52-.16-.95-.38-.36-.18-.71-.37-1.05-.59-.16-.11-.32-.22-.48-.33.34.25-.14-.11-.23-.2-.26-.23-.51-.47-.74-.73-.12-.14-.24-.28-.36-.42.27.33-.07-.1-.15-.23-.2-.31-.4-.62-.57-.95-.09-.16-.17-.33-.25-.5-.2-.42.06.19-.11-.26-.27-.73-.49-1.47-.64-2.24-.04-.2-.07-.39-.11-.59-.02-.11-.04-.23-.05-.34,0,.03.04.34.01.1-.05-.44-.09-.89-.11-1.34-.05-.87-.04-1.73,0-2.6.17-3.56,1.01-7.21,2.14-10.93.54-1.77,1.14-3.52,1.8-5.26.31-.81.62-1.62.95-2.42.14-.34.28-.67.42-1.01-.18.42.04-.09.08-.19.08-.19.16-.38.25-.57.77-1.77,1.76-3.48,2.48-5.27.03-.08.08-.16.13-.24l-2.75.72c3.61,1.75,7.22,3.51,10.82,5.26,2.32,1.13,4.36-2.34,2.03-3.47-3.61-1.75-7.22-3.51-10.82-5.26-.94-.46-2.21-.3-2.75.72-2.34,4.44-4.27,9.17-5.86,13.92-2.37,7.11-4.7,16.05-1.39,23.23,4.58,9.94,18.25,7.29,26.48,4.84,11.62-3.46,21.93-10.52,28.41-20.87,3.06-4.89,5.46-10.57,6.28-16.32.04-.26.08-.52.1-.78.11-1.08-1.01-2.01-2.01-2.01-1.18,0-1.9.93-2.01,2.01h0Z"/>
    <path class="cls-10" d="m131.09,212.86c-4.95-1.23-10.32-1.53-15.39-1.19-9.74.64-19.25,4.26-25.32,12.21-5.09,6.67-10.67,14.31-18.47,17.88-.02,0-.03,0-.05.02-.12.04-.23.09-.35.13-.17.06-.35.1-.52.15-.64.22-1.1.6-1.43,1.17-.92,1.56-1.45,3.44-1.71,5.22-1.58,10.9,6.96,19.35,15.43,24.79.93,5.81,1.87,11.61,2.8,17.42.23,1.43.46,2.86.69,4.3.05.33.11.67.16,1-.05,1.61.36,3.37.52,4.96.86,8.48,1.65,16.96,2.3,25.46.35,4.6.67,9.2.87,13.81.08,1.91.15,3.82.17,5.73.01,1.29-.12,2.62-.03,3.91.27,3.97,5.02,5.45,8.23,6.2,5.06,1.18,10.34,1.54,15.54,1.73-.03-.08-.07-.15-.09-.23-.3-.99-.31-2.04-.03-3.03.02-.26.07-.52.12-.77-1.47-.06-2.94-.13-4.4-.24-1.71-.12-3.42-.27-5.12-.48-.18-.02-.36-.04-.54-.07-.05,0-.08-.01-.1-.01-.03,0-.07-.01-.15-.02-.37-.05-.73-.11-1.1-.16-.71-.11-1.42-.24-2.12-.38-1.18-.24-2.36-.53-3.5-.93-.22-.08-.44-.16-.66-.25,0,0,0,0,0,0-.1-.05-.21-.09-.31-.14-.38-.19-.73-.4-1.1-.62-.04-.02-.08-.05-.12-.08-.12-.12-.26-.27-.39-.37,0,0,0,0,0,0-.02-.04-.11-.22-.16-.32,0-.02,0-.03,0-.05.09-.78.05-1.6.05-2.38.02-4.61-.25-9.22-.55-13.82-.66-10.23-1.6-20.45-2.62-30.65-.46-4.62-1.06-9.15-1.8-13.73-.7-4.38-1.41-8.76-2.11-13.14-.21-1.32-.38-2.66-.64-3.98-.12-.59-.28-1.02-.79-1.45-.83-.71-1.88-1.21-2.78-1.83-.88-.61-1.75-1.24-2.58-1.91-4.16-3.36-7.98-7.65-9.06-13.04-.16-.81-.23-1.39-.24-2.39,0-.41,0-.82.03-1.23.01-.18.03-.36.04-.53,0-.09.02-.17.03-.26,0-.02,0-.03,0-.05.11-.64.24-1.28.43-1.91.08-.26.16-.52.26-.78.06-.16.21-.51.2-.51.04-.08.07-.16.11-.23,1.59-.48,3.17-1.51,4.48-2.39,5.28-3.57,9.65-8.43,13.55-13.41,2.31-2.95,4.37-6.01,7.39-8.3,2.33-1.77,4.98-3.13,7.75-4.06,5.07-1.72,10.44-2.19,15.76-1.93,1.17.06,2.34.15,3.51.28,1.04.12,1.21.14,2.38.33.82.14,1.63.28,2.44.48,2.51.62,3.58-3.25,1.07-3.88Z"/>
    <path class="cls-10" d="m86.95,296.01s0,.05.01.08c.08.43.01.14-.01-.08Z"/>
    <path class="cls-10" d="m94.84,349.84s-.03-.03,0,0h0Z"/>
    <path class="cls-10" d="m94.96,349.99c.24.3.04.08,0,0h0Z"/>
    <path class="cls-10" d="m96.83,351.16c-.17-.07-.14-.06,0,0h0Z"/>
    <path class="cls-10" d="m191.75,339.47c0-.14.02-.28.04-.42.02-.22.15-1.16.06-.47.13-.98.28-1.95.42-2.93.49-3.32,1.01-6.64,1.55-9.95,1.49-9.18,3.09-18.34,4.91-27.46.97-4.86,2-9.71,3.2-14.53.63-2.51-3.25-3.58-3.88-1.07-4.18,16.81-6.98,34.03-9.54,51.15-.28,1.86-.73,3.8-.78,5.68-.07,2.59,3.95,2.59,4.02,0h0Z"/>
    <path class="cls-10" d="m93.3,234.88c-2.14,14.39-5.21,28.73-9.14,42.73-.7,2.5,3.18,3.56,3.88,1.07,3.93-14,7-28.34,9.14-42.73.16-1.08-.27-2.15-1.4-2.47-.95-.27-2.31.33-2.47,1.4h0Z"/>
    <path class="cls-10" d="m84.1,270.28c-4.13,2.89-8.49,5.49-12.88,7.96-9.27,5.22-18.99,9.8-29.19,12.87-5.9,1.77-11.97,3.04-18.14,3.19l1.42.59c-.54-.52-1.02-1.1-1.49-1.68-.1-.13-.2-.25-.3-.38.02.02.12.16-.1-.14-.29-.39-.57-.79-.85-1.19-.6-.88-1.15-1.78-1.66-2.71-2.92-5.32-4.23-11.38-3.83-17.45.62-9.25,5.38-17.62,10.26-25.28,3.44-5.4,7.46-10.23,11.68-15.02,3.44-3.9,6.38-7.91,7.72-13.03.18-.67.01-1.47-.52-1.96-1.32-1.21-2.55-2.58-3.64-4-1.71-2.23-3.49-4.98-3.42-7.89.02-.82-.63-1.78-1.48-1.94-6.65-1.26-13.75-3.05-19.67-6.41-.72-.41-1.71-1.03-2.19-1.42-.33-.27-.65-.55-.95-.86-.42-.43-.45-.46-.66-.8-.07-.11-.42-.85-.28-.46-.06-.16-.1-.32-.15-.48-.15-.49.07-.07-.02-.04v-.13c0-.22,0-.16-.04.18-.07.05.46-.78-.06.09-.07.12-.31.17-.37.29.02-.05.32-.1.37-.1.48-.05-.48.02.04,0,.34-.02.67-.03,1.01-.01.95.04,1.4.13,2.45.34,2.19.43,4.35,1.03,6.5,1.62,4.98,1.36,10.36,3.25,15.59,3.02,1.8-.08,2.58-2.11,1.42-3.43-5.29-6.04-10.4-12.5-14.38-19.48-1.11-1.95-2.02-3.65-2.59-5.72-.06-.23-.12-.47-.17-.7-.02-.09-.11-.66-.08-.4s-.02-.29-.02-.36c0-.19,0-.39.01-.58.01-.38.03.4.02-.06,0-.22.16-.43-.02-.05.07-.15.15-.29.23-.44s.05-.26.03-.05c-.05.42.02-.1.04-.01.02.12-.22.13-.46.16.31-.05.11.06-.11-.05.15.07.36.1.52.15-.03-.01-.24-.15.08.06.15.1.32.18.47.28.54.35.37.24.84.64,2.01,1.71,3.76,3.74,5.51,5.71,6.1,6.86,12.18,13.72,19.3,19.56,1.98,1.62,4.6-.89,2.84-2.84-5.81-6.45-11.53-12.98-17.14-19.61-3.66-4.32-7.34-8.7-10.56-13.12-1-1.38-1.94-2.77-2.75-4.26-.16-.29-.1-.21.03.08-.04-.1-.09-.21-.11-.31-.09-.5-.05.72,0,.38.03-.22-.25.34-.09.2.06-.05.38-.43-.12.12.31-.34,0-.15-.02-.03.01-.13.57-.24.03-.06.21-.07.42-.12.63-.17-.52.12.03,0,.21,0,.25,0,.51,0,.76.02.46.02-.08-.04.4.05.34.06.69.14,1.02.23,1.4.37,2.69.98,3.94,1.7,3.85,2.22,7.09,5.48,9.77,9,3.14,4.12,5.89,8.51,9.29,12.44,2.03,2.34,4.3,4.64,7,6.2s9.29,3.94,10.12-.76c.32-1.83-.13-3.78-.56-5.55-.59-2.42-1.37-4.8-2.2-7.15-3.28-9.33-7.27-18.44-11.42-27.42-.08-.18-.16-.36-.25-.53l-.31,2.44c.06-.06.2-.25.28-.26.09-.01.27-.22.34-.28-.21.18-.16.1.22-.15s.77-.47,1.17-.68c.12-.06.25-.12.37-.17-.5.22-.05.02.05,0,.33-.11.67-.21,1.01-.29.15-.04.31-.06.46-.08-.47.07-.1.02.02.01.31,0,.61-.01.92,0,.56.03-.41-.09.16.02.18.04.36.07.53.12.58.16.6.17.98.37,1.82.97,3.15,2.67,4.24,4.49,3.27,5.46,4.84,12.01,6.09,18.2.95,4.71,1.54,9.58,3.27,14.09,2.17,5.65,6.11,9.85,11.2,13.04,1.12.7,2.6,0,2.95-1.2,1.43-4.86,4.11-9.84,7.76-13.45,2.9-2.86,6.45-4.15,10.51-3.5,2.16.35,4.14.99,5.89,2v-3.47c-3.47,1.79-6.75,4.2-9.63,6.83-2.3,2.11-4.44,4.55-5.9,7.33-1.86,3.51-3.23,7.38-4.46,11.15-.44,1.36-.86,2.74-1.24,4.12-.19.68-.5,1.44-.56,2.15-.04.49.34-.66.05-.06-.18.37-.35.74-.53,1.11-1.64,3.23-3.68,6.16-6.2,8.73-4.15,4.25-9.47,6.98-15.49,6.91-2.59-.03-2.59,3.99,0,4.02,10.62.12,19.14-7.11,24.22-15.91,1.06-1.83,1.73-3.49,2.28-5.52.87-3.21,1.92-6.37,3.12-9.47,1.31-3.37,2.74-6.59,5.17-9.31,3.11-3.48,7.04-6.45,11.19-8.6,1.36-.7,1.26-2.74,0-3.47-4.34-2.52-10.21-3.61-15.01-1.95-6.32,2.19-10.54,8.58-13.17,14.41-.71,1.59-1.4,3.21-1.9,4.89l2.95-1.2c-4.27-2.68-7.73-6.23-9.49-11.02s-2.32-9.93-3.37-14.9c-1.38-6.51-3.19-13.61-7.01-19.16-2.42-3.51-5.99-6.36-10.47-5.69-2.13.32-4.32,1.44-5.83,2.99-.67.69-.7,1.61-.31,2.44,3.63,7.78,7.01,15.59,10.03,23.61.97,2.57,1.89,5.16,2.68,7.79.32,1.07.62,2.16.87,3.25.1.45.19.9.27,1.35.02.12.11.87.05.25.02.19.04.39.06.59.02.32,0,.64.02.96.03.47.11-.3.02-.07-.02.05-.04.36-.1.39-.24.11.28-.52.12-.29-.06.08-.19.25.05-.04.16-.19-.08-.07.33-.3.07-.04.44-.25.65-.16-.15-.06-.49-.01-.65-.02-.23-.01-.46-.04-.69-.06-.09,0-.39-.05.03,0-.11-.02-.23-.03-.34-.05-.51-.1-1.01-.21-1.51-.36-.94-.29-1.69-.65-2.77-1.35-2.58-1.68-4.85-4.3-6.86-6.78-3.39-4.17-6.12-8.85-9.65-12.91-2.78-3.19-6.09-6.13-9.88-8.07-2.33-1.19-5.07-2.23-7.73-1.92-2.01.23-4.12,1.53-4.03,3.81.05,1.44,1.04,2.84,1.8,4,2.89,4.41,6.34,8.48,9.7,12.53,6.43,7.75,13.08,15.34,19.81,22.83.13.14.25.28.38.42l2.84-2.84c-6.9-5.67-12.84-12.28-18.75-18.94-1.91-2.15-3.8-4.39-5.98-6.27-1.46-1.25-3.4-2.75-5.46-2.23s-3.05,2.58-3.13,4.51c-.09,2.21.81,4.4,1.71,6.37,2.35,5.16,5.8,9.85,9.22,14.33,2.4,3.15,4.87,6.25,7.48,9.23l1.42-3.43c-4.79.21-9.76-1.57-14.38-2.84-2.39-.65-4.8-1.33-7.24-1.77-1.73-.31-3.71-.66-5.43-.11-1.95.63-2.77,2.46-2.36,4.4s1.8,3.49,3.28,4.67c3.87,3.08,8.81,4.79,13.48,6.22,3.27,1,6.61,1.87,9.97,2.5l-1.48-1.94c-.14,5.64,4.28,11.11,8.24,14.73l-.52-1.96c-.93,3.57-2.78,6.65-5.05,9.37-3.14,3.74-6.47,7.29-9.42,11.2-4.78,6.33-9.13,13.36-12.17,20.69-2.73,6.57-3.84,13.68-2.81,20.73.71,4.85,2.5,9.57,5.12,13.71,1.11,1.75,2.44,3.99,4.15,5.24,1.27.93,3.87.33,5.36.18,1.71-.17,3.42-.4,5.11-.69,3.49-.6,6.94-1.46,10.33-2.49,6.7-2.04,13.2-4.75,19.51-7.79,7.86-3.8,15.62-8.09,22.8-13.08.12-.08.24-.17.36-.25,2.1-1.47.1-4.96-2.03-3.47h0Z"/>
    <path class="cls-10" d="m65.37,221.75c-2.86,7.55-5.72,15.09-8.59,22.63-.96,2.52-1.92,5.04-2.88,7.55s-1.78,4.93-3.01,7.24c-2.71,5.12-6.65,9.49-10.94,13.33-2.43,2.17-4.83,4.12-7.58,5.86-2.18,1.38-.17,4.86,2.03,3.47,7.24-4.56,13.98-10.96,18.56-18.2,3.02-4.78,4.71-10.33,6.72-15.58s4.05-10.63,6.06-15.95c1.17-3.1,2.35-6.19,3.52-9.29.92-2.42-2.97-3.47-3.88-1.07h0Z"/>
    <path class="cls-10" d="m189.31,184.88c.09.17.16.34.24.51.05.11.1.23.15.34-.06-.14-.12-.29-.03-.06.12.29.23.58.34.87.66,1.78,1.16,3.62,1.5,5.48,1.01,5.52.33,11.27-2.21,16.29-1.16,2.3,2.3,4.34,3.47,2.03,4.23-8.37,4.32-19.08,0-27.5-1.18-2.3-4.65-.27-3.47,2.03h0Z"/>
    <path class="cls-10" d="m76.47,192.31c-1.26.09-2.56.81-3.6,1.48-3.12,2.02-5.36,5.19-7.04,8.45s-2.88,6.69-3.83,10.21c-.45,1.66,2.08,2.55,2.53.88,1.35-5.02,3.18-10.14,6.47-14.23,1.49-1.85,3.08-3.22,5.18-4,.19-.07-.32.09,0,0,.07-.02.13-.04.2-.05.11-.02.22-.05.33-.08.09-.02.19-.03.28-.04,1.72-.12,1.19-2.75-.51-2.63h0Z"/>
    <path class="cls-10" d="m179.29,220.86c.59-1.37,1.3-2.71,1.95-4.05-.04-.11-.08-.22-.12-.32-.61-1.66-1.09-3.37-1.47-5.1-.54-2.45-.84-4.94-.97-7.45-.49,2.09-1.09,4.15-1.92,6.13-.04.1-.1.18-.16.26-.25.71-.53,1.42-.82,2.12.55,2.54,1.28,5.15,2.46,7.48.26.52.64.81,1.06.94Z"/>
    <path class="cls-10" d="m69.12,247.58c-4.28,1.61-8.57,3.23-12.85,4.84-.61.23-1.22.46-1.83.69-1.02.38-1.71,1.36-1.4,2.47.27.97,1.45,1.79,2.47,1.4,4.28-1.61,8.57-3.23,12.85-4.84.61-.23,1.22-.46,1.83-.69,1.02-.38,1.71-1.36,1.4-2.47-.27-.97-1.45-1.79-2.47-1.4h0Z"/>
    <path class="cls-10" d="m128.18,344.27c0-.32-.14.48-.02.1.05-.15.08-.32.13-.47.12-.42.28-.83.44-1.24.36-.93.79-1.84,1.22-2.74s.92-1.86,1.46-2.74c.11-.18.23-.36.34-.54.21-.34.08-.29.08-.13,0-.14.6-.37-.09.02.35-.2.65-.31,1.04-.42,3.2-.89,6.9-.35,10.18-.38,3.66-.04,7.24-.48,10.56-2.1,2.33-1.13.29-4.6-2.03-3.47-3.42,1.67-7.33,1.58-11.05,1.54-3.34-.03-7.86-.54-10.8,1.41-1.63,1.08-2.55,3.5-3.36,5.19s-2.12,3.96-2.13,5.98c-.01,2.59,4.01,2.59,4.02,0h0Z"/>
    <path class="cls-10" d="m152.93,333.74c11.69,4.6,24.16,7.95,36.82,7.74,2.58-.04,2.59-4.06,0-4.02-12.31.2-24.38-3.12-35.75-7.6-1.02-.4-2.2.44-2.47,1.4-.33,1.14.4,2.08,1.4,2.47h0Z"/>
    <path class="cls-10" d="m124.23,343.74c-1.04,5.99-2.08,11.97-3.11,17.96-.19,1.07.29,2.17,1.4,2.47.97.27,2.29-.33,2.47-1.4,1.04-5.99,2.08-11.97,3.11-17.96.19-1.07-.29-2.17-1.4-2.47-.97-.27-2.29.33-2.47,1.4h0Z"/>
    <path class="cls-10" d="m122.65,364.18c-.65,1.38-1.02,2.86-.98,4.4s.44,3.01,1.16,4.36c.5.93,1.86,1.29,2.75.72.94-.61,1.25-1.76.72-2.75-.1-.2-.2-.39-.29-.6l.2.48c-.26-.62-.43-1.25-.53-1.92l.07.53c-.09-.7-.09-1.4,0-2.1l-.07.53c.09-.62.26-1.23.5-1.81l-.2.48c.04-.1.09-.2.14-.3.23-.5.18-1.42.02-1.97-.13-.47-.31-.55-.75-.78-.89-.47-2.27-.3-2.75.72h0Z"/>
    <path class="cls-10" d="m137.4,365.89c-1.4-.07-2.71-.46-3.96-1.03l-9.55,6.02c-.89.56-1.32,1.82-.72,2.75.57.89,1.8,1.32,2.75.72,3.71-2.34,7.42-4.68,11.13-7.02.57-.36.93-1,.97-1.67-.18.14-.38.23-.62.22Z"/>
    <path class="cls-10" d="m187.34,356.01c-6.11-.21-12.21.58-17.84,3.06-5.19,2.29-8.53,6.02-14.36,5.28-1.08-.14-2.01,1.02-2.01,2.01,0,.55-1.94-.08-1.62.25.08-.03.17-.06.25-.1.24-.1.54-.04.8.11,2.23.06,3.88.79,6.1.92.92-.18,2.38-.88,3.26-1.18,2.65-.9,5.38-1.78,7.89-3.01,5.52-2.7,11.42-3.54,17.52-3.33,2.59.09,2.58-3.93,0-4.02Z"/>
    <path class="cls-10" d="m203.39,169.54c.29-.07.59-.11.89-.17.47-.08.2-.02,0,0,.2-.02.4-.05.6-.07.47-.05.94-.08,1.41-.1,1.22-.05,2.44,0,3.66.12.17.02.34.04.51.06.34.04-.45-.08.11.02.38.06.76.12,1.14.2.78.15,1.56.34,2.33.57,1.98.58,2.85.95,4.63,1.94,1.97,1.09,3.25,2.06,4.8,3.51,3.9,3.65,6.65,8.35,8.58,13.39,1.37,3.58,2.37,7.3,3.11,11.05.9,4.54,1.23,9.13,1.87,13.71,1,7.08,2.92,14.2,6.56,20.4,4.85,8.26,12.85,13.99,22.37,15.37,3.32.48,6.67.55,10.01.15,1.78-.21,3.85-.38,5.55-1.03.07-.03.16-.04.23-.07l-2.47-1.4c.06.3.09.6.14.89-.14-.87.03.32.06.62.05.46.08.93.11,1.39.07,1.24.09,2.48.04,3.72-.03.71-.07,1.41-.14,2.11-.03.37-.08.74-.12,1.11s.05-.32-.03.2c-.03.22-.07.44-.1.66-1.25,7.56-5.04,13.81-11.92,17.48-5.88,3.13-12.77,3.84-19.33,3.72-2.59-.05-2.59,3.98,0,4.02,11.29.2,23.38-2.46,30.32-12.11,4.1-5.7,5.59-13.02,5.35-19.94-.06-1.65-.19-3.33-.51-4.96-.2-1.04-1.5-1.71-2.47-1.4-1.17.37-2.39.6-3.59.8-.28.05-.57.09-.85.13-.34.05.51-.06-.03,0-.18.02-.36.04-.53.06-.71.08-1.42.14-2.13.18-1.64.09-3.29.07-4.92-.06-.43-.03-.86-.08-1.3-.13-.11-.01-.22-.03-.33-.04.07,0,.42.06.04,0-.25-.04-.5-.08-.75-.12-.94-.16-1.88-.36-2.81-.6-2.15-.57-3.63-1.13-5.42-2.07-4.15-2.17-7.5-5.32-10.1-9.29-3.78-5.78-5.72-12.55-6.81-19.32-.73-4.56-1-9.17-1.82-13.72-.69-3.82-1.62-7.61-2.92-11.27-3.44-9.69-9.62-18.64-19.55-22.39-4.3-1.62-9.77-2.43-14.32-1.26-.07.02-.14.03-.22.05-2.51.62-1.45,4.49,1.07,3.88h0Z"/>
    <g>
      <g>
        <path d="m78.7,126.91c-14.03,3.76-18.05,9.97-18.15,15.76,2.29,1.7,3.21,4.41,3.64,7.2.03.08.07.16.1.24.4-.12.84,0,1.08.5.04.08.07.17.11.26,0,0,0,0,0,0,0,0,0,0,0,0,.09.2.17.41.26.61.04,0,.09.01.13.02-.71-9.79,3.77-19.86,14.2-23.25,12.35-4.02,23.43,8.43,23.43,8.43,0,0-7.17-14.49-24.81-9.76Z"/>
        <path d="m103.98,136.43c-.07-.15-7.57-14.83-25.42-10.04-10.32,2.76-16.4,7.16-18.08,13.05-.27.96-.41,1.92-.46,2.87.39.24.74.51,1.07.8-.02-1.12.1-2.25.42-3.38,1.57-5.51,7.4-9.65,17.32-12.31,2.45-.66,4.69-.94,6.73-.94,7.2,0,11.92,3.5,14.61,6.45-4.37-3.43-12.07-7.88-20.28-5.21-10.49,3.42-14.94,13.26-14.63,22.73.03.05.07.09.1.15.04.08.07.17.11.26,0,0,0,0,0,0,0,0,0,0,0,0,.09.2.17.41.26.61.26,0,.5.09.69.29-.78-9.45,3.34-19.61,13.8-23.01,11.86-3.87,22.76,8.15,22.87,8.28.18.2.48.24.7.09.22-.15.3-.44.18-.68Z"/>
      </g>
      <path d="m90.07,160.51c-2.53,0-4.92-1.03-6.94-2.98-2.91-2.82-4.61-7.17-4.66-11.92-.09-8.32,5.03-15.2,11.42-15.32,2.59-.06,5.06.98,7.12,2.98,2.91,2.82,4.61,7.17,4.66,11.92h0c.09,8.32-5.04,15.2-11.42,15.32-.06,0-.12,0-.18,0Zm0-27.01s-.08,0-.12,0c-4.63.09-8.34,5.51-8.27,12.07.04,3.84,1.42,7.45,3.68,9.64,1.43,1.39,3.08,2.08,4.82,2.07,4.63-.09,8.34-5.51,8.27-12.07h0c-.04-3.84-1.42-7.45-3.68-9.64-1.4-1.36-3.02-2.07-4.7-2.07Z"/>
      <g>
        <path d="m134.61,132.67s11.43-14.97,25.68-11.49c14.25,3.48,19.95,18.2,17.42,31.07,0,0,20.8-25.75-15.99-32.69-20.27-3.82-27.12,13.11-27.12,13.11Z"/>
        <path d="m177.71,152.78c-.08,0-.15-.02-.23-.05-.22-.1-.35-.35-.3-.59,2.39-12.16-2.77-26.96-17.03-30.45-13.75-3.36-25.02,11.15-25.13,11.3-.16.21-.46.27-.69.14-.23-.13-.33-.42-.23-.67.07-.17,7.23-17.3,27.71-13.44,11.83,2.23,19.04,6.65,21.42,13.13,3.52,9.57-4.76,19.99-5.11,20.43-.1.13-.26.2-.42.2Zm-21.73-32.66c1.44,0,2.92.17,4.43.53,14.02,3.42,19.63,17.25,18.18,29.4,2.18-3.38,6.11-10.82,3.64-17.53-2.25-6.1-9.18-10.28-20.62-12.44-13.4-2.52-20.74,4.07-24.14,8.7,3.79-3.61,10.54-8.66,18.5-8.66Z"/>
      </g>
      <g>
        <path d="m181.61,139s1.96,3.76,7.18,3.05c0,0-7.33,5.02-7.18-3.05Z"/>
        <path d="m184.54,144.13c-.56,0-1.1-.11-1.59-.37-1.29-.7-1.92-2.3-1.87-4.76,0-.24.17-.45.41-.51.24-.06.48.06.6.27.08.14,1.88,3.41,6.63,2.76.24-.04.48.11.57.34.09.23,0,.49-.2.64-.12.08-2.42,1.63-4.55,1.63Zm-2.3-3.5c.17,1.11.58,1.84,1.22,2.18.84.45,2.03.21,3.08-.19-2.04-.23-3.43-1.17-4.3-1.99Z"/>
      </g>
      <path d="m156.05,157.07c-6.86,0-12.81-7.08-13.4-16.11h0c-.34-5.3,1.18-10.29,4.18-13.67,2.12-2.39,4.75-3.73,7.62-3.89,7.12-.4,13.36,6.83,13.96,16.1.34,5.3-1.18,10.28-4.18,13.67-2.12,2.39-4.75,3.73-7.62,3.89-.19.01-.37.02-.56.02Zm-10.19-16.32c.49,7.52,5.2,13.39,10.57,13.09,2-.11,3.86-1.08,5.4-2.82,2.4-2.71,3.66-6.94,3.38-11.33-.49-7.52-5.26-13.41-10.57-13.09-2,.11-3.86,1.08-5.39,2.81-2.4,2.71-3.66,6.94-3.38,11.33h0Z"/>
    </g>
    <path class="cls-10" d="m131.78,367.13c-3.14,0-7.94-.3-9.72-1.99-.74-.71-.9-1.48-.9-2.01,0-.89.72-1.61,1.61-1.61.81,0,1.47.59,1.59,1.36.81.62,4.28,1.05,7.91,1.02-.2-4.36-.28-15.21,3.46-18.85.64-.62,1.66-.6,2.27.03.62.64.6,1.66-.03,2.27-2.54,2.47-2.82,12.34-2.39,17.98.03.43-.11.86-.4,1.19s-.7.52-1.13.54c-.52.02-1.32.05-2.27.05Z"/>
    <path class="cls-10" d="m142,368.54c-1.28,0-3.72-.48-8.71-2.16-.84-.28-1.29-1.2-1.01-2.04.28-.84,1.19-1.3,2.04-1.01,2.32.78,5.09,1.57,6.64,1.88.29-4.64,2.14-16.1,3.28-19.5.28-.84,1.19-1.3,2.03-1.02.84.28,1.3,1.19,1.02,2.03-1.43,4.29-3.28,18.25-3.16,19.66.13.55-.08,1.2-.57,1.64-.27.24-.58.52-1.56.52Zm-1.05-1.66s0,.06.01.09c0-.03-.01-.06-.01-.09Z"/>
    <path class="cls-10" d="m148.96,369.53c-2.7,0-5.37-.44-6.41-1.99-3.78-5.61-.04-17.74,1.72-21.94.34-.82,1.29-1.21,2.11-.86.82.34,1.2,1.29.86,2.1-2.28,5.45-4.5,15.22-2.02,18.9.6.61,4,.73,7.57.3-.46-4.4-1.47-15.96.3-19.95.36-.81,1.31-1.18,2.12-.82.81.36,1.18,1.31.82,2.12-1.3,2.92-.61,13.71.13,19.83.1.85-.49,1.64-1.34,1.78-1.38.23-3.63.53-5.85.53Z"/>
    <path class="cls-10" d="m119.31,365.19c-2.91,0-4.74-.51-5.48-1.53-.47-.65-.48-.67.23-7.38.39-3.64.88-8.18.92-10.47.1-5.07,12.92-11.5,16.85-13.35l1.37,2.91c-7.06,3.33-14.96,8.47-15.01,10.51-.05,2.44-.52,6.85-.94,10.75-.21,1.92-.43,4.04-.52,5.15,1.27.27,4.36.22,7.29-.16l.41,3.19c-1.97.25-3.69.38-5.13.38Z"/>
    <path class="cls-10" d="m121.92,193.57c9.2.57,18.36-2.66,25.24-8.77,1.29-1.15-.61-3.04-1.9-1.9-6.37,5.66-14.86,8.51-23.35,7.99-1.72-.11-1.72,2.57,0,2.68h0Z"/>
    <path class="cls-10" d="m138.62,108.5c7.68-4.95,19.04-5.31,27.04-.88,1.51.84,2.86-1.48,1.35-2.31-8.8-4.87-21.26-4.58-29.74.88-1.45.93-.1,3.25,1.35,2.31h0Z"/>
    <path class="cls-10" d="m94.52,113.26c-9.85-3.13-20.88-.86-28.79,5.75-1.32,1.11.58,3,1.9,1.9,7.19-6.01,17.29-7.89,26.19-5.06,1.65.52,2.35-2.06.71-2.58h0Z"/>
  </g>
</svg>