<?xml version="1.0" encoding="UTF-8"?>
<svg id="Layer_2" data-name="Layer 2" xmlns="http://www.w3.org/2000/svg" viewBox="0 0 58.15 58.15">
  <defs>
    <style>
      .cls-1 {
        fill: #fff;
      }

      .cls-2 {
        fill: #ce8989;
        stroke: #fff;
        stroke-miterlimit: 10;
        stroke-width: 3px;
      }
    </style>
  </defs>
  <g id="Layer_10" data-name="Layer 10">
    <g>
      <circle class="cls-2" cx="29.07" cy="29.07" r="27.57"/>
      <path class="cls-1" d="m42.74,35c-1.3,1.61-3.7,2.96-7.18,4.04-1.24,3.54-2.75,6.15-4.55,7.83-1.8,1.68-3.66,2.52-5.6,2.52-.99,0-1.78-.27-2.38-.81-.6-.54-.9-1.25-.9-2.14,0-2.8,2.76-5.16,8.28-7.09l.45-1.84c1.29-5.25,2.09-8.38,2.4-9.39l1.11-3.73c-.14.27-.45.93-.92,1.97-2.25,5.05-4.26,8.51-6.02,10.36s-3.49,2.78-5.2,2.78c-1.3,0-2.36-.51-3.17-1.52-.81-1.02-1.22-2.34-1.22-3.98,0-2.06.73-5.2,2.2-9.41s2.2-7.03,2.2-8.44c0-.86-.22-1.57-.67-2.14s-1.02-.85-1.71-.85c-1.07,0-2.07.59-3.01,1.78s-1.41,2.45-1.41,3.81c0,1.24.44,2.24,1.33,3.01.31.29.47.51.47.68,0,.39-.26.93-.77,1.61-.51.68-1.03,1.03-1.53,1.03-.55,0-1.07-.38-1.57-1.15-.5-.77-.75-1.58-.75-2.44,0-2.3.85-4.57,2.54-6.8,1.69-2.23,3.71-3.34,6.05-3.34,1.67,0,3.03.65,4.09,1.96,1.06,1.31,1.59,3,1.59,5.08-.01,2.5-.82,5.96-2.41,10.39-1.09,3.06-1.63,5.22-1.63,6.49,0,1.17.43,1.76,1.29,1.76,1.59,0,3.62-2.39,6.09-7.16,2.47-4.77,4.71-10.52,6.7-17.24.09-.34.25-.56.48-.66.23-.1,1.01-.23,2.34-.39,1.33-.16,2.05-.23,2.14-.23.34,0,.49.1.45.29l-1.06,4.24-3.03,13.24c-.42,1.82-1.11,4.51-2.09,8.07,2.69-.85,4.88-2.32,6.57-4.43v2.25Zm-12.79,6.07c-1.95.66-3.5,1.48-4.63,2.45s-1.7,1.88-1.7,2.74c0,.48.17.88.51,1.2.34.32.75.48,1.25.48.98,0,1.82-.56,2.53-1.68.71-1.12,1.39-2.85,2.04-5.2Z"/>
    </g>
  </g>
</svg>